<svg width="147" height="36" viewBox="0 0 147 36" fill="none" xmlns="http://www.w3.org/2000/svg">
<g filter="url(#filter0_d_1020_83)">
<mask id="path-1-outside-1_1020_83" maskUnits="userSpaceOnUse" x="3" y="-1" width="142" height="30" fill="black">
<rect fill="white" x="3" y="-1" width="142" height="30"/>
<path d="M4.38094 4.2H20.7409V9.16H11.5809V13.68H19.1409V18.04H11.5809V27H4.38094V4.2ZM26.3719 6.32C25.4652 6.32 24.6785 6.01333 24.0119 5.4C23.3719 4.78667 23.0519 4.05333 23.0519 3.2C23.0519 2.34667 23.3719 1.61333 24.0119 0.999999C24.6785 0.386665 25.4652 0.0799985 26.3719 0.0799985C27.2785 0.0799985 28.0519 0.386665 28.6919 0.999999C29.3319 1.61333 29.6519 2.34667 29.6519 3.2C29.6519 4.05333 29.3319 4.78667 28.6919 5.4C28.0519 6.01333 27.2785 6.32 26.3719 6.32ZM22.9319 8.6H29.7719V27H22.9319V8.6ZM33.2834 3L40.1234 2.72V27H33.2834V3Z"/>
<path d="M61.755 26.24C60.7683 26.6667 59.6217 26.9733 58.315 27.16C57.0083 27.3467 55.795 27.44 54.675 27.44C51.0483 27.44 48.2083 26.4933 46.155 24.6C44.1017 22.7067 43.075 19.8 43.075 15.88C43.075 11.88 44.155 8.89333 46.315 6.92C48.475 4.92 51.515 3.92 55.435 3.92C57.3017 3.92 59.2483 4.17333 61.275 4.68C61.275 5.21333 61.2217 6.01333 61.115 7.08C61.0083 8.12 60.9017 8.85333 60.795 9.28H58.275C56.435 9.28 54.9817 9.32 53.915 9.4C52.875 9.45333 52.2483 9.57333 52.035 9.76C51.635 10.1333 51.3283 10.8933 51.115 12.04C50.9017 13.16 50.795 14.24 50.795 15.28C50.795 17.0933 51.0217 18.4933 51.475 19.48C51.9283 20.44 52.5017 21.08 53.195 21.4C53.8617 21.72 54.9683 21.88 56.515 21.88C57.7417 21.88 59.3417 21.7733 61.315 21.56L61.755 26.24ZM81.8228 9.76C82.0628 10.0533 82.2361 10.7867 82.3428 11.96C82.4761 13.1333 82.5428 14.92 82.5428 17.32V27H75.7028V17.4C75.7028 17.2933 75.7028 16.7733 75.7028 15.84C75.7028 14.88 75.6361 14.2933 75.5028 14.08C75.4228 13.9733 75.2228 13.8933 74.9028 13.84C74.6095 13.7867 74.2628 13.76 73.8628 13.76L73.1828 13.8C72.4361 13.8267 71.6628 14 70.8628 14.32V27H64.0228V3L70.8628 2.72V7.4C70.8628 9.32 70.7961 10.6 70.6628 11.24L70.7028 11.28C72.5161 9.22667 74.6895 8.2 77.2228 8.2C78.1828 8.2 79.0761 8.33333 79.9028 8.6C80.7561 8.86667 81.3961 9.25333 81.8228 9.76ZM96.8625 22.2C97.5292 22.2 98.7692 22.1333 100.583 22C100.823 22 101.263 21.9733 101.903 21.92L102.503 26.04C100.449 27 97.7825 27.48 94.5025 27.48C91.4358 27.48 89.0758 26.7067 87.4225 25.16C85.7958 23.6133 84.9825 21.28 84.9825 18.16C84.9825 16.56 85.1825 15.0133 85.5825 13.52C86.0092 12.0267 86.4892 10.9867 87.0225 10.4C87.5825 9.81333 88.6225 9.30667 90.1425 8.88C91.6625 8.45333 93.1692 8.24 94.6625 8.24C97.0625 8.24 98.8625 8.66667 100.063 9.52C101.263 10.3733 102.049 11.56 102.423 13.08C102.796 14.5733 102.983 16.5867 102.983 19.12C101.169 19.2267 99.3958 19.28 97.6625 19.28H91.9825C91.9825 20.1333 92.1558 20.7733 92.5025 21.2C92.8758 21.6267 93.3958 21.9067 94.0625 22.04C94.7292 22.1467 95.6625 22.2 96.8625 22.2ZM92.3825 13C92.2225 13.08 92.1025 13.4267 92.0225 14.04C91.9425 14.6533 91.8892 15.3467 91.8625 16.12H93.9425C95.1958 16.12 96.1025 16.1067 96.6625 16.08C96.6625 14.8 96.4758 13.8933 96.1025 13.36C95.7558 12.8267 95.1425 12.56 94.2625 12.56C93.5425 12.56 92.9158 12.7067 92.3825 13ZM120.87 26.44C118.71 27.16 116.297 27.52 113.63 27.52C110.643 27.52 108.403 26.7733 106.91 25.28C105.443 23.76 104.71 21.4 104.71 18.2C104.71 16.6267 104.923 15.08 105.35 13.56C105.777 12.0133 106.23 10.9733 106.71 10.44C107.27 9.82667 108.363 9.30667 109.99 8.88C111.643 8.45333 113.35 8.24 115.11 8.24C116.95 8.24 118.803 8.4 120.67 8.72C120.617 9.38667 120.523 10.1733 120.39 11.08C120.283 11.96 120.163 12.7467 120.03 13.44C118.377 13.3333 116.817 13.28 115.35 13.28C113.91 13.28 112.99 13.36 112.59 13.52C112.377 13.6 112.177 14.1467 111.99 15.16C111.83 16.1733 111.75 17.12 111.75 18C111.75 19.1733 111.91 20.08 112.23 20.72C112.577 21.3333 113.11 21.76 113.83 22C114.55 22.24 115.523 22.36 116.75 22.36C117.283 22.36 118.457 22.3067 120.27 22.2L120.87 26.44ZM142.723 27H135.283L131.483 19.52C131.11 18.7467 130.617 18.2533 130.003 18.04V27H123.163V3L130.003 2.72V16.36C130.643 16.0933 131.19 15.5467 131.643 14.72L135.043 8.6L142.523 8.56L138.643 14.8C138.03 15.7867 137.363 16.5733 136.643 17.16C137.257 17.8267 137.95 18.84 138.723 20.2L142.723 27Z"/>
</mask>
<path d="M4.38094 4.2H20.7409V9.16H11.5809V13.68H19.1409V18.04H11.5809V27H4.38094V4.2ZM26.3719 6.32C25.4652 6.32 24.6785 6.01333 24.0119 5.4C23.3719 4.78667 23.0519 4.05333 23.0519 3.2C23.0519 2.34667 23.3719 1.61333 24.0119 0.999999C24.6785 0.386665 25.4652 0.0799985 26.3719 0.0799985C27.2785 0.0799985 28.0519 0.386665 28.6919 0.999999C29.3319 1.61333 29.6519 2.34667 29.6519 3.2C29.6519 4.05333 29.3319 4.78667 28.6919 5.4C28.0519 6.01333 27.2785 6.32 26.3719 6.32ZM22.9319 8.6H29.7719V27H22.9319V8.6ZM33.2834 3L40.1234 2.72V27H33.2834V3Z" fill="#27366D" shape-rendering="crispEdges"/>
<path d="M61.755 26.24C60.7683 26.6667 59.6217 26.9733 58.315 27.16C57.0083 27.3467 55.795 27.44 54.675 27.44C51.0483 27.44 48.2083 26.4933 46.155 24.6C44.1017 22.7067 43.075 19.8 43.075 15.88C43.075 11.88 44.155 8.89333 46.315 6.92C48.475 4.92 51.515 3.92 55.435 3.92C57.3017 3.92 59.2483 4.17333 61.275 4.68C61.275 5.21333 61.2217 6.01333 61.115 7.08C61.0083 8.12 60.9017 8.85333 60.795 9.28H58.275C56.435 9.28 54.9817 9.32 53.915 9.4C52.875 9.45333 52.2483 9.57333 52.035 9.76C51.635 10.1333 51.3283 10.8933 51.115 12.04C50.9017 13.16 50.795 14.24 50.795 15.28C50.795 17.0933 51.0217 18.4933 51.475 19.48C51.9283 20.44 52.5017 21.08 53.195 21.4C53.8617 21.72 54.9683 21.88 56.515 21.88C57.7417 21.88 59.3417 21.7733 61.315 21.56L61.755 26.24ZM81.8228 9.76C82.0628 10.0533 82.2361 10.7867 82.3428 11.96C82.4761 13.1333 82.5428 14.92 82.5428 17.32V27H75.7028V17.4C75.7028 17.2933 75.7028 16.7733 75.7028 15.84C75.7028 14.88 75.6361 14.2933 75.5028 14.08C75.4228 13.9733 75.2228 13.8933 74.9028 13.84C74.6095 13.7867 74.2628 13.76 73.8628 13.76L73.1828 13.8C72.4361 13.8267 71.6628 14 70.8628 14.32V27H64.0228V3L70.8628 2.72V7.4C70.8628 9.32 70.7961 10.6 70.6628 11.24L70.7028 11.28C72.5161 9.22667 74.6895 8.2 77.2228 8.2C78.1828 8.2 79.0761 8.33333 79.9028 8.6C80.7561 8.86667 81.3961 9.25333 81.8228 9.76ZM96.8625 22.2C97.5292 22.2 98.7692 22.1333 100.583 22C100.823 22 101.263 21.9733 101.903 21.92L102.503 26.04C100.449 27 97.7825 27.48 94.5025 27.48C91.4358 27.48 89.0758 26.7067 87.4225 25.16C85.7958 23.6133 84.9825 21.28 84.9825 18.16C84.9825 16.56 85.1825 15.0133 85.5825 13.52C86.0092 12.0267 86.4892 10.9867 87.0225 10.4C87.5825 9.81333 88.6225 9.30667 90.1425 8.88C91.6625 8.45333 93.1692 8.24 94.6625 8.24C97.0625 8.24 98.8625 8.66667 100.063 9.52C101.263 10.3733 102.049 11.56 102.423 13.08C102.796 14.5733 102.983 16.5867 102.983 19.12C101.169 19.2267 99.3958 19.28 97.6625 19.28H91.9825C91.9825 20.1333 92.1558 20.7733 92.5025 21.2C92.8758 21.6267 93.3958 21.9067 94.0625 22.04C94.7292 22.1467 95.6625 22.2 96.8625 22.2ZM92.3825 13C92.2225 13.08 92.1025 13.4267 92.0225 14.04C91.9425 14.6533 91.8892 15.3467 91.8625 16.12H93.9425C95.1958 16.12 96.1025 16.1067 96.6625 16.08C96.6625 14.8 96.4758 13.8933 96.1025 13.36C95.7558 12.8267 95.1425 12.56 94.2625 12.56C93.5425 12.56 92.9158 12.7067 92.3825 13ZM120.87 26.44C118.71 27.16 116.297 27.52 113.63 27.52C110.643 27.52 108.403 26.7733 106.91 25.28C105.443 23.76 104.71 21.4 104.71 18.2C104.71 16.6267 104.923 15.08 105.35 13.56C105.777 12.0133 106.23 10.9733 106.71 10.44C107.27 9.82667 108.363 9.30667 109.99 8.88C111.643 8.45333 113.35 8.24 115.11 8.24C116.95 8.24 118.803 8.4 120.67 8.72C120.617 9.38667 120.523 10.1733 120.39 11.08C120.283 11.96 120.163 12.7467 120.03 13.44C118.377 13.3333 116.817 13.28 115.35 13.28C113.91 13.28 112.99 13.36 112.59 13.52C112.377 13.6 112.177 14.1467 111.99 15.16C111.83 16.1733 111.75 17.12 111.75 18C111.75 19.1733 111.91 20.08 112.23 20.72C112.577 21.3333 113.11 21.76 113.83 22C114.55 22.24 115.523 22.36 116.75 22.36C117.283 22.36 118.457 22.3067 120.27 22.2L120.87 26.44ZM142.723 27H135.283L131.483 19.52C131.11 18.7467 130.617 18.2533 130.003 18.04V27H123.163V3L130.003 2.72V16.36C130.643 16.0933 131.19 15.5467 131.643 14.72L135.043 8.6L142.523 8.56L138.643 14.8C138.03 15.7867 137.363 16.5733 136.643 17.16C137.257 17.8267 137.95 18.84 138.723 20.2L142.723 27Z" fill="#F5CD06" shape-rendering="crispEdges"/>
<path d="M4.38094 4.2V3.2H3.38094V4.2H4.38094ZM20.7409 4.2H21.7409V3.2H20.7409V4.2ZM20.7409 9.16V10.16H21.7409V9.16H20.7409ZM11.5809 9.16V8.16H10.5809V9.16H11.5809ZM11.5809 13.68H10.5809V14.68H11.5809V13.68ZM19.1409 13.68H20.1409V12.68H19.1409V13.68ZM19.1409 18.04V19.04H20.1409V18.04H19.1409ZM11.5809 18.04V17.04H10.5809V18.04H11.5809ZM11.5809 27V28H12.5809V27H11.5809ZM4.38094 27H3.38094V28H4.38094V27ZM4.38094 5.2H20.7409V3.2H4.38094V5.2ZM19.7409 4.2V9.16H21.7409V4.2H19.7409ZM20.7409 8.16H11.5809V10.16H20.7409V8.16ZM10.5809 9.16V13.68H12.5809V9.16H10.5809ZM11.5809 14.68H19.1409V12.68H11.5809V14.68ZM18.1409 13.68V18.04H20.1409V13.68H18.1409ZM19.1409 17.04H11.5809V19.04H19.1409V17.04ZM10.5809 18.04V27H12.5809V18.04H10.5809ZM11.5809 26H4.38094V28H11.5809V26ZM5.38094 27V4.2H3.38094V27H5.38094ZM24.0119 5.4L23.32 6.12199L23.3273 6.12904L23.3348 6.13593L24.0119 5.4ZM24.0119 1L23.3348 0.264069L23.3273 0.270962L23.32 0.278011L24.0119 1ZM22.9319 8.6V7.6H21.9319V8.6H22.9319ZM29.7719 8.6H30.7719V7.6H29.7719V8.6ZM29.7719 27V28H30.7719V27H29.7719ZM22.9319 27H21.9319V28H22.9319V27ZM26.3719 5.32C25.7158 5.32 25.1708 5.10742 24.6889 4.66407L23.3348 6.13593C24.1862 6.91924 25.2146 7.32 26.3719 7.32V5.32ZM24.7038 4.67801C24.252 4.24507 24.0519 3.76908 24.0519 3.2H22.0519C22.0519 4.33759 22.4917 5.32826 23.32 6.12199L24.7038 4.67801ZM24.0519 3.2C24.0519 2.63092 24.252 2.15493 24.7038 1.72198L23.32 0.278011C22.4917 1.07173 22.0519 2.06241 22.0519 3.2H24.0519ZM24.6889 1.73593C25.1708 1.29258 25.7158 1.08 26.3719 1.08V-0.920002C25.2146 -0.920002 24.1862 -0.519245 23.3348 0.264069L24.6889 1.73593ZM26.3719 1.08C27.0272 1.08 27.5508 1.29154 28 1.72199L29.3838 0.278011C28.5529 -0.518211 27.5298 -0.920002 26.3719 -0.920002V1.08ZM28 1.72199C28.4517 2.15493 28.6519 2.63092 28.6519 3.2H30.6519C30.6519 2.06241 30.212 1.07173 29.3838 0.278011L28 1.72199ZM28.6519 3.2C28.6519 3.76908 28.4517 4.24507 28 4.67801L29.3838 6.12199C30.212 5.32826 30.6519 4.33759 30.6519 3.2H28.6519ZM28 4.67801C27.5508 5.10845 27.0272 5.32 26.3719 5.32V7.32C27.5298 7.32 28.5529 6.91821 29.3838 6.12199L28 4.67801ZM22.9319 9.6H29.7719V7.6H22.9319V9.6ZM28.7719 8.6V27H30.7719V8.6H28.7719ZM29.7719 26H22.9319V28H29.7719V26ZM23.9319 27V8.6H21.9319V27H23.9319ZM33.2834 3L33.2425 2.00084L32.2834 2.0401V3H33.2834ZM40.1234 2.72H41.1234V1.67822L40.0825 1.72083L40.1234 2.72ZM40.1234 27V28H41.1234V27H40.1234ZM33.2834 27H32.2834V28H33.2834V27ZM33.3243 3.99916L40.1643 3.71916L40.0825 1.72083L33.2425 2.00084L33.3243 3.99916ZM39.1234 2.72V27H41.1234V2.72H39.1234ZM40.1234 26H33.2834V28H40.1234V26ZM34.2834 27V3H32.2834V27H34.2834ZM61.755 26.24L62.1519 27.1579L62.8186 26.8696L62.7506 26.1464L61.755 26.24ZM58.315 27.16L58.1736 26.1701L58.315 27.16ZM46.155 24.6L45.4771 25.3352L46.155 24.6ZM46.315 6.92L46.9895 7.6583L46.9944 7.65376L46.315 6.92ZM61.275 4.68H62.275V3.89922L61.5175 3.70986L61.275 4.68ZM61.115 7.08L62.1098 7.18203L62.11 7.1795L61.115 7.08ZM60.795 9.28V10.28H61.5758L61.7651 9.52254L60.795 9.28ZM53.915 9.4L53.9662 10.3987L53.978 10.3981L53.9898 10.3972L53.915 9.4ZM52.035 9.76L51.3765 9.00742L51.3644 9.01799L51.3527 9.02895L52.035 9.76ZM51.115 12.04L52.0974 12.2271L52.0981 12.2229L51.115 12.04ZM51.475 19.48L50.5663 19.8975L50.5708 19.907L51.475 19.48ZM53.195 21.4L53.6277 20.4985L53.6209 20.4952L53.6141 20.492L53.195 21.4ZM61.315 21.56L62.3106 21.4664L62.2157 20.4568L61.2075 20.5658L61.315 21.56ZM61.3581 25.3221C60.469 25.7066 59.4114 25.9932 58.1736 26.1701L58.4564 28.1499C59.8319 27.9535 61.0676 27.6267 62.1519 27.1579L61.3581 25.3221ZM58.1736 26.1701C56.9057 26.3512 55.7402 26.44 54.675 26.44V28.44C55.8498 28.44 57.1109 28.3422 58.4564 28.1499L58.1736 26.1701ZM54.675 26.44C51.2223 26.44 48.6517 25.5419 46.8329 23.8648L45.4771 25.3352C47.765 27.4448 50.8744 28.44 54.675 28.44V26.44ZM46.8329 23.8648C45.0568 22.2271 44.075 19.6365 44.075 15.88H42.075C42.075 19.9635 43.1465 23.1862 45.4771 25.3352L46.8329 23.8648ZM44.075 15.88C44.075 12.0538 45.1046 9.38029 46.9895 7.65829L45.6405 6.18171C43.2054 8.40637 42.075 11.7062 42.075 15.88H44.075ZM46.9944 7.65376C48.9152 5.87521 51.6816 4.92 55.435 4.92V2.92C51.3484 2.92 48.0348 3.96478 45.6356 6.18624L46.9944 7.65376ZM55.435 4.92C57.2109 4.92 59.0758 5.16099 61.0325 5.65014L61.5175 3.70986C59.4208 3.18568 57.3925 2.92 55.435 2.92V4.92ZM60.275 4.68C60.275 5.16151 60.2259 5.92094 60.12 6.9805L62.11 7.1795C62.2174 6.10573 62.275 5.26515 62.275 4.68H60.275ZM60.1202 6.97797C60.0136 8.01727 59.9125 8.68708 59.8249 9.03746L61.7651 9.52254C61.8909 9.01958 62.003 8.22273 62.1098 7.18203L60.1202 6.97797ZM60.795 8.28H58.275V10.28H60.795V8.28ZM58.275 8.28C56.425 8.28 54.9432 8.32008 53.8402 8.4028L53.9898 10.3972C55.0201 10.3199 56.445 10.28 58.275 10.28V8.28ZM53.8638 8.40131C53.3226 8.42906 52.8546 8.47552 52.4769 8.54784C52.157 8.6091 51.704 8.72086 51.3765 9.00742L52.6935 10.5126C52.6162 10.5802 52.5671 10.5895 52.6154 10.5719C52.6538 10.5579 52.7288 10.5359 52.8531 10.5122C53.1021 10.4645 53.4674 10.4243 53.9662 10.3987L53.8638 8.40131ZM51.3527 9.02895C50.697 9.64089 50.3485 10.6926 50.1319 11.8571L52.0981 12.2229C52.3081 11.0941 52.573 10.6258 52.7173 10.4911L51.3527 9.02895ZM50.1327 11.8529C49.9087 13.0287 49.795 14.1715 49.795 15.28H51.795C51.795 14.3085 51.8946 13.2913 52.0973 12.2271L50.1327 11.8529ZM49.795 15.28C49.795 17.1533 50.0255 18.7204 50.5663 19.8975L52.3837 19.0625C52.0178 18.2662 51.795 17.0334 51.795 15.28H49.795ZM50.5708 19.907C51.0855 20.9971 51.7993 21.8572 52.7759 22.308L53.6141 20.492C53.204 20.3028 52.7711 19.8829 52.3792 19.053L50.5708 19.907ZM52.7623 22.3015C53.6453 22.7254 54.9474 22.88 56.515 22.88V20.88C54.9893 20.88 54.078 20.7146 53.6277 20.4985L52.7623 22.3015ZM56.515 22.88C57.7926 22.88 59.4323 22.7694 61.4225 22.5542L61.2075 20.5658C59.251 20.7773 57.6908 20.88 56.515 20.88V22.88ZM60.3194 21.6536L60.7594 26.3336L62.7506 26.1464L62.3106 21.4664L60.3194 21.6536ZM81.8228 9.76L82.5968 9.12676L82.5923 9.12128L82.5877 9.11586L81.8228 9.76ZM82.3428 11.96L81.3469 12.0505L81.3479 12.0617L81.3492 12.0729L82.3428 11.96ZM82.5428 27V28H83.5428V27H82.5428ZM75.7028 27H74.7028V28H75.7028V27ZM75.5028 14.08L76.3508 13.55L76.3283 13.514L76.3028 13.48L75.5028 14.08ZM74.9028 13.84L74.7239 14.8239L74.7312 14.8252L74.7384 14.8264L74.9028 13.84ZM73.8628 13.76V12.76H73.8334L73.8041 12.7617L73.8628 13.76ZM73.1828 13.8L73.2185 14.7994L73.23 14.799L73.2415 14.7983L73.1828 13.8ZM70.8628 14.32L70.4914 13.3915L69.8628 13.643V14.32H70.8628ZM70.8628 27V28H71.8628V27H70.8628ZM64.0228 27H63.0228V28H64.0228V27ZM64.0228 3L63.9819 2.00084L63.0228 2.0401V3H64.0228ZM70.8628 2.72H71.8628V1.67822L70.8219 1.72083L70.8628 2.72ZM70.6628 11.24L69.6838 11.036L69.5736 11.565L69.9557 11.9471L70.6628 11.24ZM70.7028 11.28L69.9957 11.9871L70.7481 12.7395L71.4524 11.9419L70.7028 11.28ZM79.9028 8.6L79.5958 9.55175L79.6045 9.55448L79.9028 8.6ZM81.0489 10.3932C81.0176 10.3551 81.08 10.4231 81.1596 10.76C81.2312 11.0628 81.2958 11.4878 81.3469 12.0505L83.3387 11.8695C83.2832 11.2588 83.2078 10.7306 83.106 10.3C83.0123 9.90359 82.868 9.45825 82.5968 9.12676L81.0489 10.3932ZM81.3492 12.0729C81.4759 13.1875 81.5428 14.9276 81.5428 17.32H83.5428C83.5428 14.9124 83.4764 13.0791 83.3364 11.8471L81.3492 12.0729ZM81.5428 17.32V27H83.5428V17.32H81.5428ZM82.5428 26H75.7028V28H82.5428V26ZM76.7028 27V17.4H74.7028V27H76.7028ZM76.7028 17.4C76.7028 17.3998 76.7028 17.3996 76.7028 17.3994C76.7028 17.3992 76.7028 17.3989 76.7028 17.3987C76.7028 17.3985 76.7028 17.3983 76.7028 17.3981C76.7028 17.3979 76.7028 17.3976 76.7028 17.3974C76.7028 17.3972 76.7028 17.397 76.7028 17.3968C76.7028 17.3965 76.7028 17.3963 76.7028 17.3961C76.7028 17.3959 76.7028 17.3956 76.7028 17.3954C76.7028 17.3952 76.7028 17.3949 76.7028 17.3947C76.7028 17.3945 76.7028 17.3942 76.7028 17.394C76.7028 17.3938 76.7028 17.3935 76.7028 17.3933C76.7028 17.393 76.7028 17.3928 76.7028 17.3926C76.7028 17.3923 76.7028 17.3921 76.7028 17.3918C76.7028 17.3916 76.7028 17.3913 76.7028 17.3911C76.7028 17.3908 76.7028 17.3906 76.7028 17.3903C76.7028 17.3901 76.7028 17.3898 76.7028 17.3896C76.7028 17.3893 76.7028 17.389 76.7028 17.3888C76.7028 17.3885 76.7028 17.3883 76.7028 17.388C76.7028 17.3877 76.7028 17.3875 76.7028 17.3872C76.7028 17.387 76.7028 17.3867 76.7028 17.3864C76.7028 17.3861 76.7028 17.3859 76.7028 17.3856C76.7028 17.3853 76.7028 17.3851 76.7028 17.3848C76.7028 17.3845 76.7028 17.3842 76.7028 17.384C76.7028 17.3837 76.7028 17.3834 76.7028 17.3831C76.7028 17.3828 76.7028 17.3826 76.7028 17.3823C76.7028 17.382 76.7028 17.3817 76.7028 17.3814C76.7028 17.3811 76.7028 17.3808 76.7028 17.3806C76.7028 17.3803 76.7028 17.38 76.7028 17.3797C76.7028 17.3794 76.7028 17.3791 76.7028 17.3788C76.7028 17.3785 76.7028 17.3782 76.7028 17.3779C76.7028 17.3776 76.7028 17.3773 76.7028 17.377C76.7028 17.3767 76.7028 17.3764 76.7028 17.3761C76.7028 17.3758 76.7028 17.3755 76.7028 17.3752C76.7028 17.3748 76.7028 17.3745 76.7028 17.3742C76.7028 17.3739 76.7028 17.3736 76.7028 17.3733C76.7028 17.373 76.7028 17.3727 76.7028 17.3723C76.7028 17.372 76.7028 17.3717 76.7028 17.3714C76.7028 17.371 76.7028 17.3707 76.7028 17.3704C76.7028 17.3701 76.7028 17.3698 76.7028 17.3694C76.7028 17.3691 76.7028 17.3688 76.7028 17.3684C76.7028 17.3681 76.7028 17.3678 76.7028 17.3674C76.7028 17.3671 76.7028 17.3668 76.7028 17.3664C76.7028 17.3661 76.7028 17.3657 76.7028 17.3654C76.7028 17.3651 76.7028 17.3647 76.7028 17.3644C76.7028 17.364 76.7028 17.3637 76.7028 17.3633C76.7028 17.363 76.7028 17.3626 76.7028 17.3623C76.7028 17.3619 76.7028 17.3616 76.7028 17.3612C76.7028 17.3609 76.7028 17.3605 76.7028 17.3602C76.7028 17.3598 76.7028 17.3595 76.7028 17.3591C76.7028 17.3587 76.7028 17.3584 76.7028 17.358C76.7028 17.3577 76.7028 17.3573 76.7028 17.3569C76.7028 17.3566 76.7028 17.3562 76.7028 17.3558C76.7028 17.3555 76.7028 17.3551 76.7028 17.3547C76.7028 17.3543 76.7028 17.354 76.7028 17.3536C76.7028 17.3532 76.7028 17.3528 76.7028 17.3525C76.7028 17.3521 76.7028 17.3517 76.7028 17.3513C76.7028 17.3509 76.7028 17.3505 76.7028 17.3502C76.7028 17.3498 76.7028 17.3494 76.7028 17.349C76.7028 17.3486 76.7028 17.3482 76.7028 17.3478C76.7028 17.3474 76.7028 17.3471 76.7028 17.3467C76.7028 17.3463 76.7028 17.3459 76.7028 17.3455C76.7028 17.3451 76.7028 17.3447 76.7028 17.3443C76.7028 17.3439 76.7028 17.3435 76.7028 17.3431C76.7028 17.3427 76.7028 17.3423 76.7028 17.3419C76.7028 17.3414 76.7028 17.341 76.7028 17.3406C76.7028 17.3402 76.7028 17.3398 76.7028 17.3394C76.7028 17.339 76.7028 17.3386 76.7028 17.3381C76.7028 17.3377 76.7028 17.3373 76.7028 17.3369C76.7028 17.3365 76.7028 17.3361 76.7028 17.3356C76.7028 17.3352 76.7028 17.3348 76.7028 17.3344C76.7028 17.3339 76.7028 17.3335 76.7028 17.3331C76.7028 17.3326 76.7028 17.3322 76.7028 17.3318C76.7028 17.3313 76.7028 17.3309 76.7028 17.3305C76.7028 17.33 76.7028 17.3296 76.7028 17.3292C76.7028 17.3287 76.7028 17.3283 76.7028 17.3279C76.7028 17.3274 76.7028 17.327 76.7028 17.3265C76.7028 17.3261 76.7028 17.3256 76.7028 17.3252C76.7028 17.3247 76.7028 17.3243 76.7028 17.3238C76.7028 17.3234 76.7028 17.3229 76.7028 17.3225C76.7028 17.322 76.7028 17.3216 76.7028 17.3211C76.7028 17.3206 76.7028 17.3202 76.7028 17.3197C76.7028 17.3193 76.7028 17.3188 76.7028 17.3183C76.7028 17.3179 76.7028 17.3174 76.7028 17.3169C76.7028 17.3165 76.7028 17.316 76.7028 17.3155C76.7028 17.3151 76.7028 17.3146 76.7028 17.3141C76.7028 17.3137 76.7028 17.3132 76.7028 17.3127C76.7028 17.3122 76.7028 17.3117 76.7028 17.3113C76.7028 17.3108 76.7028 17.3103 76.7028 17.3098C76.7028 17.3093 76.7028 17.3089 76.7028 17.3084C76.7028 17.3079 76.7028 17.3074 76.7028 17.3069C76.7028 17.3064 76.7028 17.3059 76.7028 17.3054C76.7028 17.3049 76.7028 17.3045 76.7028 17.304C76.7028 17.3035 76.7028 17.303 76.7028 17.3025C76.7028 17.302 76.7028 17.3015 76.7028 17.301C76.7028 17.3005 76.7028 17.3 76.7028 17.2995C76.7028 17.299 76.7028 17.2984 76.7028 17.2979C76.7028 17.2974 76.7028 17.2969 76.7028 17.2964C76.7028 17.2959 76.7028 17.2954 76.7028 17.2949C76.7028 17.2944 76.7028 17.2938 76.7028 17.2933C76.7028 17.2928 76.7028 17.2923 76.7028 17.2918C76.7028 17.2912 76.7028 17.2907 76.7028 17.2902C76.7028 17.2897 76.7028 17.2891 76.7028 17.2886C76.7028 17.2881 76.7028 17.2876 76.7028 17.287C76.7028 17.2865 76.7028 17.286 76.7028 17.2854C76.7028 17.2849 76.7028 17.2844 76.7028 17.2838C76.7028 17.2833 76.7028 17.2828 76.7028 17.2822C76.7028 17.2817 76.7028 17.2811 76.7028 17.2806C76.7028 17.2801 76.7028 17.2795 76.7028 17.279C76.7028 17.2784 76.7028 17.2779 76.7028 17.2773C76.7028 17.2768 76.7028 17.2762 76.7028 17.2757C76.7028 17.2751 76.7028 17.2746 76.7028 17.274C76.7028 17.2735 76.7028 17.2729 76.7028 17.2723C76.7028 17.2718 76.7028 17.2712 76.7028 17.2707C76.7028 17.2701 76.7028 17.2695 76.7028 17.269C76.7028 17.2684 76.7028 17.2678 76.7028 17.2673C76.7028 17.2667 76.7028 17.2661 76.7028 17.2656C76.7028 17.265 76.7028 17.2644 76.7028 17.2638C76.7028 17.2633 76.7028 17.2627 76.7028 17.2621C76.7028 17.2615 76.7028 17.261 76.7028 17.2604C76.7028 17.2598 76.7028 17.2592 76.7028 17.2586C76.7028 17.2581 76.7028 17.2575 76.7028 17.2569C76.7028 17.2563 76.7028 17.2557 76.7028 17.2551C76.7028 17.2545 76.7028 17.2539 76.7028 17.2533C76.7028 17.2528 76.7028 17.2522 76.7028 17.2516C76.7028 17.251 76.7028 17.2504 76.7028 17.2498C76.7028 17.2492 76.7028 17.2486 76.7028 17.248C76.7028 17.2474 76.7028 17.2468 76.7028 17.2462C76.7028 17.2455 76.7028 17.2449 76.7028 17.2443C76.7028 17.2437 76.7028 17.2431 76.7028 17.2425C76.7028 17.2419 76.7028 17.2413 76.7028 17.2407C76.7028 17.24 76.7028 17.2394 76.7028 17.2388C76.7028 17.2382 76.7028 17.2376 76.7028 17.2369C76.7028 17.2363 76.7028 17.2357 76.7028 17.2351C76.7028 17.2345 76.7028 17.2338 76.7028 17.2332C76.7028 17.2326 76.7028 17.2319 76.7028 17.2313C76.7028 17.2307 76.7028 17.23 76.7028 17.2294C76.7028 17.2288 76.7028 17.2281 76.7028 17.2275C76.7028 17.2269 76.7028 17.2262 76.7028 17.2256C76.7028 17.225 76.7028 17.2243 76.7028 17.2237C76.7028 17.223 76.7028 17.2224 76.7028 17.2217C76.7028 17.2211 76.7028 17.2204 76.7028 17.2198C76.7028 17.2191 76.7028 17.2185 76.7028 17.2178C76.7028 17.2172 76.7028 17.2165 76.7028 17.2159C76.7028 17.2152 76.7028 17.2146 76.7028 17.2139C76.7028 17.2132 76.7028 17.2126 76.7028 17.2119C76.7028 17.2113 76.7028 17.2106 76.7028 17.2099C76.7028 17.2093 76.7028 17.2086 76.7028 17.2079C76.7028 17.2073 76.7028 17.2066 76.7028 17.2059C76.7028 17.2052 76.7028 17.2046 76.7028 17.2039C76.7028 17.2032 76.7028 17.2025 76.7028 17.2019C76.7028 17.2012 76.7028 17.2005 76.7028 17.1998C76.7028 17.1991 76.7028 17.1985 76.7028 17.1978C76.7028 17.1971 76.7028 17.1964 76.7028 17.1957C76.7028 17.195 76.7028 17.1943 76.7028 17.1936C76.7028 17.193 76.7028 17.1923 76.7028 17.1916C76.7028 17.1909 76.7028 17.1902 76.7028 17.1895C76.7028 17.1888 76.7028 17.1881 76.7028 17.1874C76.7028 17.1867 76.7028 17.186 76.7028 17.1853C76.7028 17.1846 76.7028 17.1839 76.7028 17.1832C76.7028 17.1825 76.7028 17.1817 76.7028 17.181C76.7028 17.1803 76.7028 17.1796 76.7028 17.1789C76.7028 17.1782 76.7028 17.1775 76.7028 17.1768C76.7028 17.176 76.7028 17.1753 76.7028 17.1746C76.7028 17.1739 76.7028 17.1732 76.7028 17.1724C76.7028 17.1717 76.7028 17.171 76.7028 17.1703C76.7028 17.1695 76.7028 17.1688 76.7028 17.1681C76.7028 17.1674 76.7028 17.1666 76.7028 17.1659C76.7028 17.1652 76.7028 17.1644 76.7028 17.1637C76.7028 17.163 76.7028 17.1622 76.7028 17.1615C76.7028 17.1608 76.7028 17.16 76.7028 17.1593C76.7028 17.1585 76.7028 17.1578 76.7028 17.157C76.7028 17.1563 76.7028 17.1556 76.7028 17.1548C76.7028 17.1541 76.7028 17.1533 76.7028 17.1526C76.7028 17.1518 76.7028 17.1511 76.7028 17.1503C76.7028 17.1496 76.7028 17.1488 76.7028 17.148C76.7028 17.1473 76.7028 17.1465 76.7028 17.1458C76.7028 17.145 76.7028 17.1442 76.7028 17.1435C76.7028 17.1427 76.7028 17.1419 76.7028 17.1412C76.7028 17.1404 76.7028 17.1396 76.7028 17.1389C76.7028 17.1381 76.7028 17.1373 76.7028 17.1366C76.7028 17.1358 76.7028 17.135 76.7028 17.1342C76.7028 17.1335 76.7028 17.1327 76.7028 17.1319C76.7028 17.1311 76.7028 17.1303 76.7028 17.1296C76.7028 17.1288 76.7028 17.128 76.7028 17.1272C76.7028 17.1264 76.7028 17.1256 76.7028 17.1249C76.7028 17.1241 76.7028 17.1233 76.7028 17.1225C76.7028 17.1217 76.7028 17.1209 76.7028 17.1201C76.7028 17.1193 76.7028 17.1185 76.7028 17.1177C76.7028 17.1169 76.7028 17.1161 76.7028 17.1153C76.7028 17.1145 76.7028 17.1137 76.7028 17.1129C76.7028 17.1121 76.7028 17.1113 76.7028 17.1105C76.7028 17.1097 76.7028 17.1089 76.7028 17.1081C76.7028 17.1073 76.7028 17.1064 76.7028 17.1056C76.7028 17.1048 76.7028 17.104 76.7028 17.1032C76.7028 17.1024 76.7028 17.1015 76.7028 17.1007C76.7028 17.0999 76.7028 17.0991 76.7028 17.0983C76.7028 17.0974 76.7028 17.0966 76.7028 17.0958C76.7028 17.095 76.7028 17.0941 76.7028 17.0933C76.7028 17.0925 76.7028 17.0916 76.7028 17.0908C76.7028 17.09 76.7028 17.0891 76.7028 17.0883C76.7028 17.0875 76.7028 17.0866 76.7028 17.0858C76.7028 17.085 76.7028 17.0841 76.7028 17.0833C76.7028 17.0824 76.7028 17.0816 76.7028 17.0807C76.7028 17.0799 76.7028 17.079 76.7028 17.0782C76.7028 17.0773 76.7028 17.0765 76.7028 17.0756C76.7028 17.0748 76.7028 17.0739 76.7028 17.0731C76.7028 17.0722 76.7028 17.0714 76.7028 17.0705C76.7028 17.0697 76.7028 17.0688 76.7028 17.0679C76.7028 17.0671 76.7028 17.0662 76.7028 17.0654C76.7028 17.0645 76.7028 17.0636 76.7028 17.0628C76.7028 17.0619 76.7028 17.061 76.7028 17.0602C76.7028 17.0593 76.7028 17.0584 76.7028 17.0575C76.7028 17.0567 76.7028 17.0558 76.7028 17.0549C76.7028 17.054 76.7028 17.0531 76.7028 17.0523C76.7028 17.0514 76.7028 17.0505 76.7028 17.0496C76.7028 17.0487 76.7028 17.0479 76.7028 17.047C76.7028 17.0461 76.7028 17.0452 76.7028 17.0443C76.7028 17.0434 76.7028 17.0425 76.7028 17.0416C76.7028 17.0407 76.7028 17.0398 76.7028 17.0389C76.7028 17.0381 76.7028 17.0372 76.7028 17.0363C76.7028 17.0354 76.7028 17.0345 76.7028 17.0336C76.7028 17.0327 76.7028 17.0318 76.7028 17.0308C76.7028 17.0299 76.7028 17.029 76.7028 17.0281C76.7028 17.0272 76.7028 17.0263 76.7028 17.0254C76.7028 17.0245 76.7028 17.0236 76.7028 17.0227C76.7028 17.0217 76.7028 17.0208 76.7028 17.0199C76.7028 17.019 76.7028 17.0181 76.7028 17.0172C76.7028 17.0162 76.7028 17.0153 76.7028 17.0144C76.7028 17.0135 76.7028 17.0125 76.7028 17.0116C76.7028 17.0107 76.7028 17.0098 76.7028 17.0088C76.7028 17.0079 76.7028 17.007 76.7028 17.006C76.7028 17.0051 76.7028 17.0042 76.7028 17.0032C76.7028 17.0023 76.7028 17.0013 76.7028 17.0004C76.7028 16.9995 76.7028 16.9985 76.7028 16.9976C76.7028 16.9966 76.7028 16.9957 76.7028 16.9947C76.7028 16.9938 76.7028 16.9928 76.7028 16.9919C76.7028 16.991 76.7028 16.99 76.7028 16.989C76.7028 16.9881 76.7028 16.9871 76.7028 16.9862C76.7028 16.9852 76.7028 16.9843 76.7028 16.9833C76.7028 16.9824 76.7028 16.9814 76.7028 16.9804C76.7028 16.9795 76.7028 16.9785 76.7028 16.9775C76.7028 16.9766 76.7028 16.9756 76.7028 16.9746C76.7028 16.9737 76.7028 16.9727 76.7028 16.9717C76.7028 16.9708 76.7028 16.9698 76.7028 16.9688C76.7028 16.9678 76.7028 16.9669 76.7028 16.9659C76.7028 16.9649 76.7028 16.9639 76.7028 16.9629C76.7028 16.962 76.7028 16.961 76.7028 16.96C76.7028 16.959 76.7028 16.958 76.7028 16.957C76.7028 16.9561 76.7028 16.9551 76.7028 16.9541C76.7028 16.9531 76.7028 16.9521 76.7028 16.9511C76.7028 16.9501 76.7028 16.9491 76.7028 16.9481C76.7028 16.9471 76.7028 16.9461 76.7028 16.9451C76.7028 16.9441 76.7028 16.9431 76.7028 16.9421C76.7028 16.9411 76.7028 16.9401 76.7028 16.9391C76.7028 16.9381 76.7028 16.9371 76.7028 16.9361C76.7028 16.9351 76.7028 16.9341 76.7028 16.933C76.7028 16.932 76.7028 16.931 76.7028 16.93C76.7028 16.929 76.7028 16.928 76.7028 16.9269C76.7028 16.9259 76.7028 16.9249 76.7028 16.9239C76.7028 16.9229 76.7028 16.9218 76.7028 16.9208C76.7028 16.9198 76.7028 16.9188 76.7028 16.9177C76.7028 16.9167 76.7028 16.9157 76.7028 16.9146C76.7028 16.9136 76.7028 16.9126 76.7028 16.9115C76.7028 16.9105 76.7028 16.9095 76.7028 16.9084C76.7028 16.9074 76.7028 16.9064 76.7028 16.9053C76.7028 16.9043 76.7028 16.9032 76.7028 16.9022C76.7028 16.9012 76.7028 16.9001 76.7028 16.8991C76.7028 16.898 76.7028 16.897 76.7028 16.8959C76.7028 16.8949 76.7028 16.8938 76.7028 16.8928C76.7028 16.8917 76.7028 16.8906 76.7028 16.8896C76.7028 16.8885 76.7028 16.8875 76.7028 16.8864C76.7028 16.8854 76.7028 16.8843 76.7028 16.8832C76.7028 16.8822 76.7028 16.8811 76.7028 16.88C76.7028 16.879 76.7028 16.8779 76.7028 16.8768C76.7028 16.8758 76.7028 16.8747 76.7028 16.8736C76.7028 16.8726 76.7028 16.8715 76.7028 16.8704C76.7028 16.8693 76.7028 16.8682 76.7028 16.8672C76.7028 16.8661 76.7028 16.865 76.7028 16.8639C76.7028 16.8628 76.7028 16.8618 76.7028 16.8607C76.7028 16.8596 76.7028 16.8585 76.7028 16.8574C76.7028 16.8563 76.7028 16.8552 76.7028 16.8541C76.7028 16.8531 76.7028 16.852 76.7028 16.8509C76.7028 16.8498 76.7028 16.8487 76.7028 16.8476C76.7028 16.8465 76.7028 16.8454 76.7028 16.8443C76.7028 16.8432 76.7028 16.8421 76.7028 16.841C76.7028 16.8399 76.7028 16.8388 76.7028 16.8377C76.7028 16.8366 76.7028 16.8354 76.7028 16.8343C76.7028 16.8332 76.7028 16.8321 76.7028 16.831C76.7028 16.8299 76.7028 16.8288 76.7028 16.8277C76.7028 16.8265 76.7028 16.8254 76.7028 16.8243C76.7028 16.8232 76.7028 16.8221 76.7028 16.8209C76.7028 16.8198 76.7028 16.8187 76.7028 16.8176C76.7028 16.8164 76.7028 16.8153 76.7028 16.8142C76.7028 16.813 76.7028 16.8119 76.7028 16.8108C76.7028 16.8097 76.7028 16.8085 76.7028 16.8074C76.7028 16.8063 76.7028 16.8051 76.7028 16.804C76.7028 16.8028 76.7028 16.8017 76.7028 16.8006C76.7028 16.7994 76.7028 16.7983 76.7028 16.7971C76.7028 16.796 76.7028 16.7948 76.7028 16.7937C76.7028 16.7925 76.7028 16.7914 76.7028 16.7902C76.7028 16.7891 76.7028 16.7879 76.7028 16.7868C76.7028 16.7856 76.7028 16.7845 76.7028 16.7833C76.7028 16.7822 76.7028 16.781 76.7028 16.7798C76.7028 16.7787 76.7028 16.7775 76.7028 16.7763C76.7028 16.7752 76.7028 16.774 76.7028 16.7729C76.7028 16.7717 76.7028 16.7705 76.7028 16.7693C76.7028 16.7682 76.7028 16.767 76.7028 16.7658C76.7028 16.7647 76.7028 16.7635 76.7028 16.7623C76.7028 16.7611 76.7028 16.7599 76.7028 16.7588C76.7028 16.7576 76.7028 16.7564 76.7028 16.7552C76.7028 16.754 76.7028 16.7529 76.7028 16.7517C76.7028 16.7505 76.7028 16.7493 76.7028 16.7481C76.7028 16.7469 76.7028 16.7457 76.7028 16.7445C76.7028 16.7433 76.7028 16.7422 76.7028 16.741C76.7028 16.7398 76.7028 16.7386 76.7028 16.7374C76.7028 16.7362 76.7028 16.735 76.7028 16.7338C76.7028 16.7326 76.7028 16.7314 76.7028 16.7302C76.7028 16.729 76.7028 16.7277 76.7028 16.7265C76.7028 16.7253 76.7028 16.7241 76.7028 16.7229C76.7028 16.7217 76.7028 16.7205 76.7028 16.7193C76.7028 16.7181 76.7028 16.7168 76.7028 16.7156C76.7028 16.7144 76.7028 16.7132 76.7028 16.712C76.7028 16.7107 76.7028 16.7095 76.7028 16.7083C76.7028 16.7071 76.7028 16.7058 76.7028 16.7046C76.7028 16.7034 76.7028 16.7022 76.7028 16.7009C76.7028 16.6997 76.7028 16.6985 76.7028 16.6972C76.7028 16.696 76.7028 16.6948 76.7028 16.6935C76.7028 16.6923 76.7028 16.6911 76.7028 16.6898C76.7028 16.6886 76.7028 16.6873 76.7028 16.6861C76.7028 16.6849 76.7028 16.6836 76.7028 16.6824C76.7028 16.6811 76.7028 16.6799 76.7028 16.6786C76.7028 16.6774 76.7028 16.6761 76.7028 16.6749C76.7028 16.6736 76.7028 16.6724 76.7028 16.6711C76.7028 16.6699 76.7028 16.6686 76.7028 16.6673C76.7028 16.6661 76.7028 16.6648 76.7028 16.6636C76.7028 16.6623 76.7028 16.661 76.7028 16.6598C76.7028 16.6585 76.7028 16.6572 76.7028 16.656C76.7028 16.6547 76.7028 16.6534 76.7028 16.6522C76.7028 16.6509 76.7028 16.6496 76.7028 16.6483C76.7028 16.6471 76.7028 16.6458 76.7028 16.6445C76.7028 16.6432 76.7028 16.642 76.7028 16.6407C76.7028 16.6394 76.7028 16.6381 76.7028 16.6368C76.7028 16.6356 76.7028 16.6343 76.7028 16.633C76.7028 16.6317 76.7028 16.6304 76.7028 16.6291C76.7028 16.6278 76.7028 16.6265 76.7028 16.6252C76.7028 16.6239 76.7028 16.6227 76.7028 16.6214C76.7028 16.6201 76.7028 16.6188 76.7028 16.6175C76.7028 16.6162 76.7028 16.6149 76.7028 16.6136C76.7028 16.6123 76.7028 16.611 76.7028 16.6096C76.7028 16.6083 76.7028 16.607 76.7028 16.6057C76.7028 16.6044 76.7028 16.6031 76.7028 16.6018C76.7028 16.6005 76.7028 16.5992 76.7028 16.5979C76.7028 16.5965 76.7028 16.5952 76.7028 16.5939C76.7028 16.5926 76.7028 16.5913 76.7028 16.5899C76.7028 16.5886 76.7028 16.5873 76.7028 16.586C76.7028 16.5846 76.7028 16.5833 76.7028 16.582C76.7028 16.5807 76.7028 16.5793 76.7028 16.578C76.7028 16.5767 76.7028 16.5753 76.7028 16.574C76.7028 16.5727 76.7028 16.5713 76.7028 16.57C76.7028 16.5687 76.7028 16.5673 76.7028 16.566C76.7028 16.5647 76.7028 16.5633 76.7028 16.562C76.7028 16.5606 76.7028 16.5593 76.7028 16.5579C76.7028 16.5566 76.7028 16.5552 76.7028 16.5539C76.7028 16.5525 76.7028 16.5512 76.7028 16.5498C76.7028 16.5485 76.7028 16.5471 76.7028 16.5458C76.7028 16.5444 76.7028 16.5431 76.7028 16.5417C76.7028 16.5403 76.7028 16.539 76.7028 16.5376C76.7028 16.5362 76.7028 16.5349 76.7028 16.5335C76.7028 16.5322 76.7028 16.5308 76.7028 16.5294C76.7028 16.528 76.7028 16.5267 76.7028 16.5253C76.7028 16.5239 76.7028 16.5226 76.7028 16.5212C76.7028 16.5198 76.7028 16.5184 76.7028 16.5171C76.7028 16.5157 76.7028 16.5143 76.7028 16.5129C76.7028 16.5115 76.7028 16.5101 76.7028 16.5088C76.7028 16.5074 76.7028 16.506 76.7028 16.5046C76.7028 16.5032 76.7028 16.5018 76.7028 16.5004C76.7028 16.499 76.7028 16.4977 76.7028 16.4963C76.7028 16.4949 76.7028 16.4935 76.7028 16.4921C76.7028 16.4907 76.7028 16.4893 76.7028 16.4879C76.7028 16.4865 76.7028 16.4851 76.7028 16.4837C76.7028 16.4823 76.7028 16.4809 76.7028 16.4795C76.7028 16.4781 76.7028 16.4766 76.7028 16.4752C76.7028 16.4738 76.7028 16.4724 76.7028 16.471C76.7028 16.4696 76.7028 16.4682 76.7028 16.4668C76.7028 16.4653 76.7028 16.4639 76.7028 16.4625C76.7028 16.4611 76.7028 16.4597 76.7028 16.4582C76.7028 16.4568 76.7028 16.4554 76.7028 16.454C76.7028 16.4525 76.7028 16.4511 76.7028 16.4497C76.7028 16.4483 76.7028 16.4468 76.7028 16.4454C76.7028 16.444 76.7028 16.4425 76.7028 16.4411C76.7028 16.4397 76.7028 16.4382 76.7028 16.4368C76.7028 16.4353 76.7028 16.4339 76.7028 16.4325C76.7028 16.431 76.7028 16.4296 76.7028 16.4281C76.7028 16.4267 76.7028 16.4252 76.7028 16.4238C76.7028 16.4223 76.7028 16.4209 76.7028 16.4194C76.7028 16.418 76.7028 16.4165 76.7028 16.4151C76.7028 16.4136 76.7028 16.4122 76.7028 16.4107C76.7028 16.4093 76.7028 16.4078 76.7028 16.4063C76.7028 16.4049 76.7028 16.4034 76.7028 16.402C76.7028 16.4005 76.7028 16.399 76.7028 16.3976C76.7028 16.3961 76.7028 16.3946 76.7028 16.3932C76.7028 16.3917 76.7028 16.3902 76.7028 16.3887C76.7028 16.3873 76.7028 16.3858 76.7028 16.3843C76.7028 16.3829 76.7028 16.3814 76.7028 16.3799C76.7028 16.3784 76.7028 16.3769 76.7028 16.3755C76.7028 16.374 76.7028 16.3725 76.7028 16.371C76.7028 16.3695 76.7028 16.368 76.7028 16.3665C76.7028 16.3651 76.7028 16.3636 76.7028 16.3621C76.7028 16.3606 76.7028 16.3591 76.7028 16.3576C76.7028 16.3561 76.7028 16.3546 76.7028 16.3531C76.7028 16.3516 76.7028 16.3501 76.7028 16.3486C76.7028 16.3471 76.7028 16.3456 76.7028 16.3441C76.7028 16.3426 76.7028 16.3411 76.7028 16.3396C76.7028 16.3381 76.7028 16.3366 76.7028 16.335C76.7028 16.3335 76.7028 16.332 76.7028 16.3305C76.7028 16.329 76.7028 16.3275 76.7028 16.326C76.7028 16.3244 76.7028 16.3229 76.7028 16.3214C76.7028 16.3199 76.7028 16.3184 76.7028 16.3168C76.7028 16.3153 76.7028 16.3138 76.7028 16.3123C76.7028 16.3107 76.7028 16.3092 76.7028 16.3077C76.7028 16.3062 76.7028 16.3046 76.7028 16.3031C76.7028 16.3016 76.7028 16.3 76.7028 16.2985C76.7028 16.297 76.7028 16.2954 76.7028 16.2939C76.7028 16.2923 76.7028 16.2908 76.7028 16.2893C76.7028 16.2877 76.7028 16.2862 76.7028 16.2846C76.7028 16.2831 76.7028 16.2815 76.7028 16.28C76.7028 16.2784 76.7028 16.2769 76.7028 16.2753C76.7028 16.2738 76.7028 16.2722 76.7028 16.2707C76.7028 16.2691 76.7028 16.2676 76.7028 16.266C76.7028 16.2644 76.7028 16.2629 76.7028 16.2613C76.7028 16.2598 76.7028 16.2582 76.7028 16.2566C76.7028 16.2551 76.7028 16.2535 76.7028 16.2519C76.7028 16.2504 76.7028 16.2488 76.7028 16.2472C76.7028 16.2457 76.7028 16.2441 76.7028 16.2425C76.7028 16.2409 76.7028 16.2394 76.7028 16.2378C76.7028 16.2362 76.7028 16.2346 76.7028 16.233C76.7028 16.2315 76.7028 16.2299 76.7028 16.2283C76.7028 16.2267 76.7028 16.2251 76.7028 16.2235C76.7028 16.222 76.7028 16.2204 76.7028 16.2188C76.7028 16.2172 76.7028 16.2156 76.7028 16.214C76.7028 16.2124 76.7028 16.2108 76.7028 16.2092C76.7028 16.2076 76.7028 16.206 76.7028 16.2044C76.7028 16.2028 76.7028 16.2012 76.7028 16.1996C76.7028 16.198 76.7028 16.1964 76.7028 16.1948C76.7028 16.1932 76.7028 16.1916 76.7028 16.19C76.7028 16.1884 76.7028 16.1868 76.7028 16.1852C76.7028 16.1836 76.7028 16.1819 76.7028 16.1803C76.7028 16.1787 76.7028 16.1771 76.7028 16.1755C76.7028 16.1739 76.7028 16.1722 76.7028 16.1706C76.7028 16.169 76.7028 16.1674 76.7028 16.1658C76.7028 16.1641 76.7028 16.1625 76.7028 16.1609C76.7028 16.1592 76.7028 16.1576 76.7028 16.156C76.7028 16.1544 76.7028 16.1527 76.7028 16.1511C76.7028 16.1495 76.7028 16.1478 76.7028 16.1462C76.7028 16.1446 76.7028 16.1429 76.7028 16.1413C76.7028 16.1396 76.7028 16.138 76.7028 16.1364C76.7028 16.1347 76.7028 16.1331 76.7028 16.1314C76.7028 16.1298 76.7028 16.1281 76.7028 16.1265C76.7028 16.1248 76.7028 16.1232 76.7028 16.1215C76.7028 16.1199 76.7028 16.1182 76.7028 16.1166C76.7028 16.1149 76.7028 16.1132 76.7028 16.1116C76.7028 16.1099 76.7028 16.1083 76.7028 16.1066C76.7028 16.1049 76.7028 16.1033 76.7028 16.1016C76.7028 16.0999 76.7028 16.0983 76.7028 16.0966C76.7028 16.0949 76.7028 16.0933 76.7028 16.0916C76.7028 16.0899 76.7028 16.0883 76.7028 16.0866C76.7028 16.0849 76.7028 16.0832 76.7028 16.0816C76.7028 16.0799 76.7028 16.0782 76.7028 16.0765C76.7028 16.0748 76.7028 16.0732 76.7028 16.0715C76.7028 16.0698 76.7028 16.0681 76.7028 16.0664C76.7028 16.0647 76.7028 16.063 76.7028 16.0613C76.7028 16.0597 76.7028 16.058 76.7028 16.0563C76.7028 16.0546 76.7028 16.0529 76.7028 16.0512C76.7028 16.0495 76.7028 16.0478 76.7028 16.0461C76.7028 16.0444 76.7028 16.0427 76.7028 16.041C76.7028 16.0393 76.7028 16.0376 76.7028 16.0359C76.7028 16.0342 76.7028 16.0325 76.7028 16.0307C76.7028 16.029 76.7028 16.0273 76.7028 16.0256C76.7028 16.0239 76.7028 16.0222 76.7028 16.0205C76.7028 16.0188 76.7028 16.017 76.7028 16.0153C76.7028 16.0136 76.7028 16.0119 76.7028 16.0102C76.7028 16.0084 76.7028 16.0067 76.7028 16.005C76.7028 16.0033 76.7028 16.0015 76.7028 15.9998C76.7028 15.9981 76.7028 15.9963 76.7028 15.9946C76.7028 15.9929 76.7028 15.9911 76.7028 15.9894C76.7028 15.9877 76.7028 15.9859 76.7028 15.9842C76.7028 15.9825 76.7028 15.9807 76.7028 15.979C76.7028 15.9772 76.7028 15.9755 76.7028 15.9738C76.7028 15.972 76.7028 15.9703 76.7028 15.9685C76.7028 15.9668 76.7028 15.965 76.7028 15.9633C76.7028 15.9615 76.7028 15.9598 76.7028 15.958C76.7028 15.9563 76.7028 15.9545 76.7028 15.9528C76.7028 15.951 76.7028 15.9492 76.7028 15.9475C76.7028 15.9457 76.7028 15.944 76.7028 15.9422C76.7028 15.9404 76.7028 15.9387 76.7028 15.9369C76.7028 15.9351 76.7028 15.9334 76.7028 15.9316C76.7028 15.9298 76.7028 15.9281 76.7028 15.9263C76.7028 15.9245 76.7028 15.9227 76.7028 15.921C76.7028 15.9192 76.7028 15.9174 76.7028 15.9156C76.7028 15.9139 76.7028 15.9121 76.7028 15.9103C76.7028 15.9085 76.7028 15.9067 76.7028 15.9049C76.7028 15.9032 76.7028 15.9014 76.7028 15.8996C76.7028 15.8978 76.7028 15.896 76.7028 15.8942C76.7028 15.8924 76.7028 15.8906 76.7028 15.8888C76.7028 15.887 76.7028 15.8852 76.7028 15.8834C76.7028 15.8816 76.7028 15.8799 76.7028 15.8781C76.7028 15.8763 76.7028 15.8744 76.7028 15.8726C76.7028 15.8708 76.7028 15.869 76.7028 15.8672C76.7028 15.8654 76.7028 15.8636 76.7028 15.8618C76.7028 15.86 76.7028 15.8582 76.7028 15.8564C76.7028 15.8546 76.7028 15.8527 76.7028 15.8509C76.7028 15.8491 76.7028 15.8473 76.7028 15.8455C76.7028 15.8436 76.7028 15.8418 76.7028 15.84H74.7028C74.7028 15.8418 74.7028 15.8436 74.7028 15.8455C74.7028 15.8473 74.7028 15.8491 74.7028 15.8509C74.7028 15.8527 74.7028 15.8546 74.7028 15.8564C74.7028 15.8582 74.7028 15.86 74.7028 15.8618C74.7028 15.8636 74.7028 15.8654 74.7028 15.8672C74.7028 15.869 74.7028 15.8708 74.7028 15.8726C74.7028 15.8744 74.7028 15.8763 74.7028 15.8781C74.7028 15.8799 74.7028 15.8816 74.7028 15.8834C74.7028 15.8852 74.7028 15.887 74.7028 15.8888C74.7028 15.8906 74.7028 15.8924 74.7028 15.8942C74.7028 15.896 74.7028 15.8978 74.7028 15.8996C74.7028 15.9014 74.7028 15.9032 74.7028 15.9049C74.7028 15.9067 74.7028 15.9085 74.7028 15.9103C74.7028 15.9121 74.7028 15.9139 74.7028 15.9156C74.7028 15.9174 74.7028 15.9192 74.7028 15.921C74.7028 15.9227 74.7028 15.9245 74.7028 15.9263C74.7028 15.9281 74.7028 15.9298 74.7028 15.9316C74.7028 15.9334 74.7028 15.9351 74.7028 15.9369C74.7028 15.9387 74.7028 15.9404 74.7028 15.9422C74.7028 15.944 74.7028 15.9457 74.7028 15.9475C74.7028 15.9492 74.7028 15.951 74.7028 15.9528C74.7028 15.9545 74.7028 15.9563 74.7028 15.958C74.7028 15.9598 74.7028 15.9615 74.7028 15.9633C74.7028 15.965 74.7028 15.9668 74.7028 15.9685C74.7028 15.9703 74.7028 15.972 74.7028 15.9738C74.7028 15.9755 74.7028 15.9772 74.7028 15.979C74.7028 15.9807 74.7028 15.9825 74.7028 15.9842C74.7028 15.9859 74.7028 15.9877 74.7028 15.9894C74.7028 15.9911 74.7028 15.9929 74.7028 15.9946C74.7028 15.9963 74.7028 15.9981 74.7028 15.9998C74.7028 16.0015 74.7028 16.0033 74.7028 16.005C74.7028 16.0067 74.7028 16.0084 74.7028 16.0102C74.7028 16.0119 74.7028 16.0136 74.7028 16.0153C74.7028 16.017 74.7028 16.0188 74.7028 16.0205C74.7028 16.0222 74.7028 16.0239 74.7028 16.0256C74.7028 16.0273 74.7028 16.029 74.7028 16.0307C74.7028 16.0325 74.7028 16.0342 74.7028 16.0359C74.7028 16.0376 74.7028 16.0393 74.7028 16.041C74.7028 16.0427 74.7028 16.0444 74.7028 16.0461C74.7028 16.0478 74.7028 16.0495 74.7028 16.0512C74.7028 16.0529 74.7028 16.0546 74.7028 16.0563C74.7028 16.058 74.7028 16.0597 74.7028 16.0613C74.7028 16.063 74.7028 16.0647 74.7028 16.0664C74.7028 16.0681 74.7028 16.0698 74.7028 16.0715C74.7028 16.0732 74.7028 16.0748 74.7028 16.0765C74.7028 16.0782 74.7028 16.0799 74.7028 16.0816C74.7028 16.0832 74.7028 16.0849 74.7028 16.0866C74.7028 16.0883 74.7028 16.0899 74.7028 16.0916C74.7028 16.0933 74.7028 16.0949 74.7028 16.0966C74.7028 16.0983 74.7028 16.0999 74.7028 16.1016C74.7028 16.1033 74.7028 16.1049 74.7028 16.1066C74.7028 16.1083 74.7028 16.1099 74.7028 16.1116C74.7028 16.1132 74.7028 16.1149 74.7028 16.1166C74.7028 16.1182 74.7028 16.1199 74.7028 16.1215C74.7028 16.1232 74.7028 16.1248 74.7028 16.1265C74.7028 16.1281 74.7028 16.1298 74.7028 16.1314C74.7028 16.1331 74.7028 16.1347 74.7028 16.1364C74.7028 16.138 74.7028 16.1396 74.7028 16.1413C74.7028 16.1429 74.7028 16.1446 74.7028 16.1462C74.7028 16.1478 74.7028 16.1495 74.7028 16.1511C74.7028 16.1527 74.7028 16.1544 74.7028 16.156C74.7028 16.1576 74.7028 16.1592 74.7028 16.1609C74.7028 16.1625 74.7028 16.1641 74.7028 16.1658C74.7028 16.1674 74.7028 16.169 74.7028 16.1706C74.7028 16.1722 74.7028 16.1739 74.7028 16.1755C74.7028 16.1771 74.7028 16.1787 74.7028 16.1803C74.7028 16.1819 74.7028 16.1836 74.7028 16.1852C74.7028 16.1868 74.7028 16.1884 74.7028 16.19C74.7028 16.1916 74.7028 16.1932 74.7028 16.1948C74.7028 16.1964 74.7028 16.198 74.7028 16.1996C74.7028 16.2012 74.7028 16.2028 74.7028 16.2044C74.7028 16.206 74.7028 16.2076 74.7028 16.2092C74.7028 16.2108 74.7028 16.2124 74.7028 16.214C74.7028 16.2156 74.7028 16.2172 74.7028 16.2188C74.7028 16.2204 74.7028 16.222 74.7028 16.2235C74.7028 16.2251 74.7028 16.2267 74.7028 16.2283C74.7028 16.2299 74.7028 16.2315 74.7028 16.233C74.7028 16.2346 74.7028 16.2362 74.7028 16.2378C74.7028 16.2394 74.7028 16.2409 74.7028 16.2425C74.7028 16.2441 74.7028 16.2457 74.7028 16.2472C74.7028 16.2488 74.7028 16.2504 74.7028 16.2519C74.7028 16.2535 74.7028 16.2551 74.7028 16.2566C74.7028 16.2582 74.7028 16.2598 74.7028 16.2613C74.7028 16.2629 74.7028 16.2644 74.7028 16.266C74.7028 16.2676 74.7028 16.2691 74.7028 16.2707C74.7028 16.2722 74.7028 16.2738 74.7028 16.2753C74.7028 16.2769 74.7028 16.2784 74.7028 16.28C74.7028 16.2815 74.7028 16.2831 74.7028 16.2846C74.7028 16.2862 74.7028 16.2877 74.7028 16.2893C74.7028 16.2908 74.7028 16.2923 74.7028 16.2939C74.7028 16.2954 74.7028 16.297 74.7028 16.2985C74.7028 16.3 74.7028 16.3016 74.7028 16.3031C74.7028 16.3046 74.7028 16.3062 74.7028 16.3077C74.7028 16.3092 74.7028 16.3107 74.7028 16.3123C74.7028 16.3138 74.7028 16.3153 74.7028 16.3168C74.7028 16.3184 74.7028 16.3199 74.7028 16.3214C74.7028 16.3229 74.7028 16.3244 74.7028 16.326C74.7028 16.3275 74.7028 16.329 74.7028 16.3305C74.7028 16.332 74.7028 16.3335 74.7028 16.335C74.7028 16.3366 74.7028 16.3381 74.7028 16.3396C74.7028 16.3411 74.7028 16.3426 74.7028 16.3441C74.7028 16.3456 74.7028 16.3471 74.7028 16.3486C74.7028 16.3501 74.7028 16.3516 74.7028 16.3531C74.7028 16.3546 74.7028 16.3561 74.7028 16.3576C74.7028 16.3591 74.7028 16.3606 74.7028 16.3621C74.7028 16.3636 74.7028 16.3651 74.7028 16.3665C74.7028 16.368 74.7028 16.3695 74.7028 16.371C74.7028 16.3725 74.7028 16.374 74.7028 16.3755C74.7028 16.3769 74.7028 16.3784 74.7028 16.3799C74.7028 16.3814 74.7028 16.3829 74.7028 16.3843C74.7028 16.3858 74.7028 16.3873 74.7028 16.3887C74.7028 16.3902 74.7028 16.3917 74.7028 16.3932C74.7028 16.3946 74.7028 16.3961 74.7028 16.3976C74.7028 16.399 74.7028 16.4005 74.7028 16.402C74.7028 16.4034 74.7028 16.4049 74.7028 16.4063C74.7028 16.4078 74.7028 16.4093 74.7028 16.4107C74.7028 16.4122 74.7028 16.4136 74.7028 16.4151C74.7028 16.4165 74.7028 16.418 74.7028 16.4194C74.7028 16.4209 74.7028 16.4223 74.7028 16.4238C74.7028 16.4252 74.7028 16.4267 74.7028 16.4281C74.7028 16.4296 74.7028 16.431 74.7028 16.4325C74.7028 16.4339 74.7028 16.4353 74.7028 16.4368C74.7028 16.4382 74.7028 16.4397 74.7028 16.4411C74.7028 16.4425 74.7028 16.444 74.7028 16.4454C74.7028 16.4468 74.7028 16.4483 74.7028 16.4497C74.7028 16.4511 74.7028 16.4525 74.7028 16.454C74.7028 16.4554 74.7028 16.4568 74.7028 16.4582C74.7028 16.4597 74.7028 16.4611 74.7028 16.4625C74.7028 16.4639 74.7028 16.4653 74.7028 16.4668C74.7028 16.4682 74.7028 16.4696 74.7028 16.471C74.7028 16.4724 74.7028 16.4738 74.7028 16.4752C74.7028 16.4766 74.7028 16.4781 74.7028 16.4795C74.7028 16.4809 74.7028 16.4823 74.7028 16.4837C74.7028 16.4851 74.7028 16.4865 74.7028 16.4879C74.7028 16.4893 74.7028 16.4907 74.7028 16.4921C74.7028 16.4935 74.7028 16.4949 74.7028 16.4963C74.7028 16.4977 74.7028 16.499 74.7028 16.5004C74.7028 16.5018 74.7028 16.5032 74.7028 16.5046C74.7028 16.506 74.7028 16.5074 74.7028 16.5088C74.7028 16.5101 74.7028 16.5115 74.7028 16.5129C74.7028 16.5143 74.7028 16.5157 74.7028 16.5171C74.7028 16.5184 74.7028 16.5198 74.7028 16.5212C74.7028 16.5226 74.7028 16.5239 74.7028 16.5253C74.7028 16.5267 74.7028 16.528 74.7028 16.5294C74.7028 16.5308 74.7028 16.5322 74.7028 16.5335C74.7028 16.5349 74.7028 16.5362 74.7028 16.5376C74.7028 16.539 74.7028 16.5403 74.7028 16.5417C74.7028 16.5431 74.7028 16.5444 74.7028 16.5458C74.7028 16.5471 74.7028 16.5485 74.7028 16.5498C74.7028 16.5512 74.7028 16.5525 74.7028 16.5539C74.7028 16.5552 74.7028 16.5566 74.7028 16.5579C74.7028 16.5593 74.7028 16.5606 74.7028 16.562C74.7028 16.5633 74.7028 16.5647 74.7028 16.566C74.7028 16.5673 74.7028 16.5687 74.7028 16.57C74.7028 16.5713 74.7028 16.5727 74.7028 16.574C74.7028 16.5753 74.7028 16.5767 74.7028 16.578C74.7028 16.5793 74.7028 16.5807 74.7028 16.582C74.7028 16.5833 74.7028 16.5846 74.7028 16.586C74.7028 16.5873 74.7028 16.5886 74.7028 16.5899C74.7028 16.5913 74.7028 16.5926 74.7028 16.5939C74.7028 16.5952 74.7028 16.5965 74.7028 16.5979C74.7028 16.5992 74.7028 16.6005 74.7028 16.6018C74.7028 16.6031 74.7028 16.6044 74.7028 16.6057C74.7028 16.607 74.7028 16.6083 74.7028 16.6096C74.7028 16.611 74.7028 16.6123 74.7028 16.6136C74.7028 16.6149 74.7028 16.6162 74.7028 16.6175C74.7028 16.6188 74.7028 16.6201 74.7028 16.6214C74.7028 16.6227 74.7028 16.6239 74.7028 16.6252C74.7028 16.6265 74.7028 16.6278 74.7028 16.6291C74.7028 16.6304 74.7028 16.6317 74.7028 16.633C74.7028 16.6343 74.7028 16.6356 74.7028 16.6368C74.7028 16.6381 74.7028 16.6394 74.7028 16.6407C74.7028 16.642 74.7028 16.6432 74.7028 16.6445C74.7028 16.6458 74.7028 16.6471 74.7028 16.6483C74.7028 16.6496 74.7028 16.6509 74.7028 16.6522C74.7028 16.6534 74.7028 16.6547 74.7028 16.656C74.7028 16.6572 74.7028 16.6585 74.7028 16.6598C74.7028 16.661 74.7028 16.6623 74.7028 16.6636C74.7028 16.6648 74.7028 16.6661 74.7028 16.6673C74.7028 16.6686 74.7028 16.6699 74.7028 16.6711C74.7028 16.6724 74.7028 16.6736 74.7028 16.6749C74.7028 16.6761 74.7028 16.6774 74.7028 16.6786C74.7028 16.6799 74.7028 16.6811 74.7028 16.6824C74.7028 16.6836 74.7028 16.6849 74.7028 16.6861C74.7028 16.6873 74.7028 16.6886 74.7028 16.6898C74.7028 16.6911 74.7028 16.6923 74.7028 16.6935C74.7028 16.6948 74.7028 16.696 74.7028 16.6972C74.7028 16.6985 74.7028 16.6997 74.7028 16.7009C74.7028 16.7022 74.7028 16.7034 74.7028 16.7046C74.7028 16.7058 74.7028 16.7071 74.7028 16.7083C74.7028 16.7095 74.7028 16.7107 74.7028 16.712C74.7028 16.7132 74.7028 16.7144 74.7028 16.7156C74.7028 16.7168 74.7028 16.7181 74.7028 16.7193C74.7028 16.7205 74.7028 16.7217 74.7028 16.7229C74.7028 16.7241 74.7028 16.7253 74.7028 16.7265C74.7028 16.7277 74.7028 16.729 74.7028 16.7302C74.7028 16.7314 74.7028 16.7326 74.7028 16.7338C74.7028 16.735 74.7028 16.7362 74.7028 16.7374C74.7028 16.7386 74.7028 16.7398 74.7028 16.741C74.7028 16.7422 74.7028 16.7433 74.7028 16.7445C74.7028 16.7457 74.7028 16.7469 74.7028 16.7481C74.7028 16.7493 74.7028 16.7505 74.7028 16.7517C74.7028 16.7529 74.7028 16.754 74.7028 16.7552C74.7028 16.7564 74.7028 16.7576 74.7028 16.7588C74.7028 16.7599 74.7028 16.7611 74.7028 16.7623C74.7028 16.7635 74.7028 16.7647 74.7028 16.7658C74.7028 16.767 74.7028 16.7682 74.7028 16.7693C74.7028 16.7705 74.7028 16.7717 74.7028 16.7729C74.7028 16.774 74.7028 16.7752 74.7028 16.7763C74.7028 16.7775 74.7028 16.7787 74.7028 16.7798C74.7028 16.781 74.7028 16.7822 74.7028 16.7833C74.7028 16.7845 74.7028 16.7856 74.7028 16.7868C74.7028 16.7879 74.7028 16.7891 74.7028 16.7902C74.7028 16.7914 74.7028 16.7925 74.7028 16.7937C74.7028 16.7948 74.7028 16.796 74.7028 16.7971C74.7028 16.7983 74.7028 16.7994 74.7028 16.8006C74.7028 16.8017 74.7028 16.8028 74.7028 16.804C74.7028 16.8051 74.7028 16.8063 74.7028 16.8074C74.7028 16.8085 74.7028 16.8097 74.7028 16.8108C74.7028 16.8119 74.7028 16.813 74.7028 16.8142C74.7028 16.8153 74.7028 16.8164 74.7028 16.8176C74.7028 16.8187 74.7028 16.8198 74.7028 16.8209C74.7028 16.8221 74.7028 16.8232 74.7028 16.8243C74.7028 16.8254 74.7028 16.8265 74.7028 16.8277C74.7028 16.8288 74.7028 16.8299 74.7028 16.831C74.7028 16.8321 74.7028 16.8332 74.7028 16.8343C74.7028 16.8354 74.7028 16.8366 74.7028 16.8377C74.7028 16.8388 74.7028 16.8399 74.7028 16.841C74.7028 16.8421 74.7028 16.8432 74.7028 16.8443C74.7028 16.8454 74.7028 16.8465 74.7028 16.8476C74.7028 16.8487 74.7028 16.8498 74.7028 16.8509C74.7028 16.852 74.7028 16.8531 74.7028 16.8541C74.7028 16.8552 74.7028 16.8563 74.7028 16.8574C74.7028 16.8585 74.7028 16.8596 74.7028 16.8607C74.7028 16.8618 74.7028 16.8628 74.7028 16.8639C74.7028 16.865 74.7028 16.8661 74.7028 16.8672C74.7028 16.8682 74.7028 16.8693 74.7028 16.8704C74.7028 16.8715 74.7028 16.8726 74.7028 16.8736C74.7028 16.8747 74.7028 16.8758 74.7028 16.8768C74.7028 16.8779 74.7028 16.879 74.7028 16.88C74.7028 16.8811 74.7028 16.8822 74.7028 16.8832C74.7028 16.8843 74.7028 16.8854 74.7028 16.8864C74.7028 16.8875 74.7028 16.8885 74.7028 16.8896C74.7028 16.8906 74.7028 16.8917 74.7028 16.8928C74.7028 16.8938 74.7028 16.8949 74.7028 16.8959C74.7028 16.897 74.7028 16.898 74.7028 16.8991C74.7028 16.9001 74.7028 16.9012 74.7028 16.9022C74.7028 16.9032 74.7028 16.9043 74.7028 16.9053C74.7028 16.9064 74.7028 16.9074 74.7028 16.9084C74.7028 16.9095 74.7028 16.9105 74.7028 16.9115C74.7028 16.9126 74.7028 16.9136 74.7028 16.9146C74.7028 16.9157 74.7028 16.9167 74.7028 16.9177C74.7028 16.9188 74.7028 16.9198 74.7028 16.9208C74.7028 16.9218 74.7028 16.9229 74.7028 16.9239C74.7028 16.9249 74.7028 16.9259 74.7028 16.9269C74.7028 16.928 74.7028 16.929 74.7028 16.93C74.7028 16.931 74.7028 16.932 74.7028 16.933C74.7028 16.9341 74.7028 16.9351 74.7028 16.9361C74.7028 16.9371 74.7028 16.9381 74.7028 16.9391C74.7028 16.9401 74.7028 16.9411 74.7028 16.9421C74.7028 16.9431 74.7028 16.9441 74.7028 16.9451C74.7028 16.9461 74.7028 16.9471 74.7028 16.9481C74.7028 16.9491 74.7028 16.9501 74.7028 16.9511C74.7028 16.9521 74.7028 16.9531 74.7028 16.9541C74.7028 16.9551 74.7028 16.9561 74.7028 16.957C74.7028 16.958 74.7028 16.959 74.7028 16.96C74.7028 16.961 74.7028 16.962 74.7028 16.9629C74.7028 16.9639 74.7028 16.9649 74.7028 16.9659C74.7028 16.9669 74.7028 16.9678 74.7028 16.9688C74.7028 16.9698 74.7028 16.9708 74.7028 16.9717C74.7028 16.9727 74.7028 16.9737 74.7028 16.9746C74.7028 16.9756 74.7028 16.9766 74.7028 16.9775C74.7028 16.9785 74.7028 16.9795 74.7028 16.9804C74.7028 16.9814 74.7028 16.9824 74.7028 16.9833C74.7028 16.9843 74.7028 16.9852 74.7028 16.9862C74.7028 16.9871 74.7028 16.9881 74.7028 16.989C74.7028 16.99 74.7028 16.991 74.7028 16.9919C74.7028 16.9928 74.7028 16.9938 74.7028 16.9947C74.7028 16.9957 74.7028 16.9966 74.7028 16.9976C74.7028 16.9985 74.7028 16.9995 74.7028 17.0004C74.7028 17.0013 74.7028 17.0023 74.7028 17.0032C74.7028 17.0042 74.7028 17.0051 74.7028 17.006C74.7028 17.007 74.7028 17.0079 74.7028 17.0088C74.7028 17.0098 74.7028 17.0107 74.7028 17.0116C74.7028 17.0125 74.7028 17.0135 74.7028 17.0144C74.7028 17.0153 74.7028 17.0162 74.7028 17.0172C74.7028 17.0181 74.7028 17.019 74.7028 17.0199C74.7028 17.0208 74.7028 17.0217 74.7028 17.0227C74.7028 17.0236 74.7028 17.0245 74.7028 17.0254C74.7028 17.0263 74.7028 17.0272 74.7028 17.0281C74.7028 17.029 74.7028 17.0299 74.7028 17.0308C74.7028 17.0318 74.7028 17.0327 74.7028 17.0336C74.7028 17.0345 74.7028 17.0354 74.7028 17.0363C74.7028 17.0372 74.7028 17.0381 74.7028 17.0389C74.7028 17.0398 74.7028 17.0407 74.7028 17.0416C74.7028 17.0425 74.7028 17.0434 74.7028 17.0443C74.7028 17.0452 74.7028 17.0461 74.7028 17.047C74.7028 17.0479 74.7028 17.0487 74.7028 17.0496C74.7028 17.0505 74.7028 17.0514 74.7028 17.0523C74.7028 17.0531 74.7028 17.054 74.7028 17.0549C74.7028 17.0558 74.7028 17.0567 74.7028 17.0575C74.7028 17.0584 74.7028 17.0593 74.7028 17.0602C74.7028 17.061 74.7028 17.0619 74.7028 17.0628C74.7028 17.0636 74.7028 17.0645 74.7028 17.0654C74.7028 17.0662 74.7028 17.0671 74.7028 17.0679C74.7028 17.0688 74.7028 17.0697 74.7028 17.0705C74.7028 17.0714 74.7028 17.0722 74.7028 17.0731C74.7028 17.0739 74.7028 17.0748 74.7028 17.0756C74.7028 17.0765 74.7028 17.0773 74.7028 17.0782C74.7028 17.079 74.7028 17.0799 74.7028 17.0807C74.7028 17.0816 74.7028 17.0824 74.7028 17.0833C74.7028 17.0841 74.7028 17.085 74.7028 17.0858C74.7028 17.0866 74.7028 17.0875 74.7028 17.0883C74.7028 17.0891 74.7028 17.09 74.7028 17.0908C74.7028 17.0916 74.7028 17.0925 74.7028 17.0933C74.7028 17.0941 74.7028 17.095 74.7028 17.0958C74.7028 17.0966 74.7028 17.0974 74.7028 17.0983C74.7028 17.0991 74.7028 17.0999 74.7028 17.1007C74.7028 17.1015 74.7028 17.1024 74.7028 17.1032C74.7028 17.104 74.7028 17.1048 74.7028 17.1056C74.7028 17.1064 74.7028 17.1073 74.7028 17.1081C74.7028 17.1089 74.7028 17.1097 74.7028 17.1105C74.7028 17.1113 74.7028 17.1121 74.7028 17.1129C74.7028 17.1137 74.7028 17.1145 74.7028 17.1153C74.7028 17.1161 74.7028 17.1169 74.7028 17.1177C74.7028 17.1185 74.7028 17.1193 74.7028 17.1201C74.7028 17.1209 74.7028 17.1217 74.7028 17.1225C74.7028 17.1233 74.7028 17.1241 74.7028 17.1249C74.7028 17.1256 74.7028 17.1264 74.7028 17.1272C74.7028 17.128 74.7028 17.1288 74.7028 17.1296C74.7028 17.1303 74.7028 17.1311 74.7028 17.1319C74.7028 17.1327 74.7028 17.1335 74.7028 17.1342C74.7028 17.135 74.7028 17.1358 74.7028 17.1366C74.7028 17.1373 74.7028 17.1381 74.7028 17.1389C74.7028 17.1396 74.7028 17.1404 74.7028 17.1412C74.7028 17.1419 74.7028 17.1427 74.7028 17.1435C74.7028 17.1442 74.7028 17.145 74.7028 17.1458C74.7028 17.1465 74.7028 17.1473 74.7028 17.148C74.7028 17.1488 74.7028 17.1496 74.7028 17.1503C74.7028 17.1511 74.7028 17.1518 74.7028 17.1526C74.7028 17.1533 74.7028 17.1541 74.7028 17.1548C74.7028 17.1556 74.7028 17.1563 74.7028 17.157C74.7028 17.1578 74.7028 17.1585 74.7028 17.1593C74.7028 17.16 74.7028 17.1608 74.7028 17.1615C74.7028 17.1622 74.7028 17.163 74.7028 17.1637C74.7028 17.1644 74.7028 17.1652 74.7028 17.1659C74.7028 17.1666 74.7028 17.1674 74.7028 17.1681C74.7028 17.1688 74.7028 17.1695 74.7028 17.1703C74.7028 17.171 74.7028 17.1717 74.7028 17.1724C74.7028 17.1732 74.7028 17.1739 74.7028 17.1746C74.7028 17.1753 74.7028 17.176 74.7028 17.1768C74.7028 17.1775 74.7028 17.1782 74.7028 17.1789C74.7028 17.1796 74.7028 17.1803 74.7028 17.181C74.7028 17.1817 74.7028 17.1825 74.7028 17.1832C74.7028 17.1839 74.7028 17.1846 74.7028 17.1853C74.7028 17.186 74.7028 17.1867 74.7028 17.1874C74.7028 17.1881 74.7028 17.1888 74.7028 17.1895C74.7028 17.1902 74.7028 17.1909 74.7028 17.1916C74.7028 17.1923 74.7028 17.193 74.7028 17.1936C74.7028 17.1943 74.7028 17.195 74.7028 17.1957C74.7028 17.1964 74.7028 17.1971 74.7028 17.1978C74.7028 17.1985 74.7028 17.1991 74.7028 17.1998C74.7028 17.2005 74.7028 17.2012 74.7028 17.2019C74.7028 17.2025 74.7028 17.2032 74.7028 17.2039C74.7028 17.2046 74.7028 17.2052 74.7028 17.2059C74.7028 17.2066 74.7028 17.2073 74.7028 17.2079C74.7028 17.2086 74.7028 17.2093 74.7028 17.2099C74.7028 17.2106 74.7028 17.2113 74.7028 17.2119C74.7028 17.2126 74.7028 17.2132 74.7028 17.2139C74.7028 17.2146 74.7028 17.2152 74.7028 17.2159C74.7028 17.2165 74.7028 17.2172 74.7028 17.2178C74.7028 17.2185 74.7028 17.2191 74.7028 17.2198C74.7028 17.2204 74.7028 17.2211 74.7028 17.2217C74.7028 17.2224 74.7028 17.223 74.7028 17.2237C74.7028 17.2243 74.7028 17.225 74.7028 17.2256C74.7028 17.2262 74.7028 17.2269 74.7028 17.2275C74.7028 17.2281 74.7028 17.2288 74.7028 17.2294C74.7028 17.23 74.7028 17.2307 74.7028 17.2313C74.7028 17.2319 74.7028 17.2326 74.7028 17.2332C74.7028 17.2338 74.7028 17.2345 74.7028 17.2351C74.7028 17.2357 74.7028 17.2363 74.7028 17.2369C74.7028 17.2376 74.7028 17.2382 74.7028 17.2388C74.7028 17.2394 74.7028 17.24 74.7028 17.2407C74.7028 17.2413 74.7028 17.2419 74.7028 17.2425C74.7028 17.2431 74.7028 17.2437 74.7028 17.2443C74.7028 17.2449 74.7028 17.2455 74.7028 17.2462C74.7028 17.2468 74.7028 17.2474 74.7028 17.248C74.7028 17.2486 74.7028 17.2492 74.7028 17.2498C74.7028 17.2504 74.7028 17.251 74.7028 17.2516C74.7028 17.2522 74.7028 17.2528 74.7028 17.2533C74.7028 17.2539 74.7028 17.2545 74.7028 17.2551C74.7028 17.2557 74.7028 17.2563 74.7028 17.2569C74.7028 17.2575 74.7028 17.2581 74.7028 17.2586C74.7028 17.2592 74.7028 17.2598 74.7028 17.2604C74.7028 17.261 74.7028 17.2615 74.7028 17.2621C74.7028 17.2627 74.7028 17.2633 74.7028 17.2638C74.7028 17.2644 74.7028 17.265 74.7028 17.2656C74.7028 17.2661 74.7028 17.2667 74.7028 17.2673C74.7028 17.2678 74.7028 17.2684 74.7028 17.269C74.7028 17.2695 74.7028 17.2701 74.7028 17.2707C74.7028 17.2712 74.7028 17.2718 74.7028 17.2723C74.7028 17.2729 74.7028 17.2735 74.7028 17.274C74.7028 17.2746 74.7028 17.2751 74.7028 17.2757C74.7028 17.2762 74.7028 17.2768 74.7028 17.2773C74.7028 17.2779 74.7028 17.2784 74.7028 17.279C74.7028 17.2795 74.7028 17.2801 74.7028 17.2806C74.7028 17.2811 74.7028 17.2817 74.7028 17.2822C74.7028 17.2828 74.7028 17.2833 74.7028 17.2838C74.7028 17.2844 74.7028 17.2849 74.7028 17.2854C74.7028 17.286 74.7028 17.2865 74.7028 17.287C74.7028 17.2876 74.7028 17.2881 74.7028 17.2886C74.7028 17.2891 74.7028 17.2897 74.7028 17.2902C74.7028 17.2907 74.7028 17.2912 74.7028 17.2918C74.7028 17.2923 74.7028 17.2928 74.7028 17.2933C74.7028 17.2938 74.7028 17.2944 74.7028 17.2949C74.7028 17.2954 74.7028 17.2959 74.7028 17.2964C74.7028 17.2969 74.7028 17.2974 74.7028 17.2979C74.7028 17.2984 74.7028 17.299 74.7028 17.2995C74.7028 17.3 74.7028 17.3005 74.7028 17.301C74.7028 17.3015 74.7028 17.302 74.7028 17.3025C74.7028 17.303 74.7028 17.3035 74.7028 17.304C74.7028 17.3045 74.7028 17.3049 74.7028 17.3054C74.7028 17.3059 74.7028 17.3064 74.7028 17.3069C74.7028 17.3074 74.7028 17.3079 74.7028 17.3084C74.7028 17.3089 74.7028 17.3093 74.7028 17.3098C74.7028 17.3103 74.7028 17.3108 74.7028 17.3113C74.7028 17.3117 74.7028 17.3122 74.7028 17.3127C74.7028 17.3132 74.7028 17.3137 74.7028 17.3141C74.7028 17.3146 74.7028 17.3151 74.7028 17.3155C74.7028 17.316 74.7028 17.3165 74.7028 17.3169C74.7028 17.3174 74.7028 17.3179 74.7028 17.3183C74.7028 17.3188 74.7028 17.3193 74.7028 17.3197C74.7028 17.3202 74.7028 17.3206 74.7028 17.3211C74.7028 17.3216 74.7028 17.322 74.7028 17.3225C74.7028 17.3229 74.7028 17.3234 74.7028 17.3238C74.7028 17.3243 74.7028 17.3247 74.7028 17.3252C74.7028 17.3256 74.7028 17.3261 74.7028 17.3265C74.7028 17.327 74.7028 17.3274 74.7028 17.3279C74.7028 17.3283 74.7028 17.3287 74.7028 17.3292C74.7028 17.3296 74.7028 17.33 74.7028 17.3305C74.7028 17.3309 74.7028 17.3313 74.7028 17.3318C74.7028 17.3322 74.7028 17.3326 74.7028 17.3331C74.7028 17.3335 74.7028 17.3339 74.7028 17.3344C74.7028 17.3348 74.7028 17.3352 74.7028 17.3356C74.7028 17.3361 74.7028 17.3365 74.7028 17.3369C74.7028 17.3373 74.7028 17.3377 74.7028 17.3381C74.7028 17.3386 74.7028 17.339 74.7028 17.3394C74.7028 17.3398 74.7028 17.3402 74.7028 17.3406C74.7028 17.341 74.7028 17.3414 74.7028 17.3419C74.7028 17.3423 74.7028 17.3427 74.7028 17.3431C74.7028 17.3435 74.7028 17.3439 74.7028 17.3443C74.7028 17.3447 74.7028 17.3451 74.7028 17.3455C74.7028 17.3459 74.7028 17.3463 74.7028 17.3467C74.7028 17.3471 74.7028 17.3474 74.7028 17.3478C74.7028 17.3482 74.7028 17.3486 74.7028 17.349C74.7028 17.3494 74.7028 17.3498 74.7028 17.3502C74.7028 17.3505 74.7028 17.3509 74.7028 17.3513C74.7028 17.3517 74.7028 17.3521 74.7028 17.3525C74.7028 17.3528 74.7028 17.3532 74.7028 17.3536C74.7028 17.354 74.7028 17.3543 74.7028 17.3547C74.7028 17.3551 74.7028 17.3555 74.7028 17.3558C74.7028 17.3562 74.7028 17.3566 74.7028 17.3569C74.7028 17.3573 74.7028 17.3577 74.7028 17.358C74.7028 17.3584 74.7028 17.3587 74.7028 17.3591C74.7028 17.3595 74.7028 17.3598 74.7028 17.3602C74.7028 17.3605 74.7028 17.3609 74.7028 17.3612C74.7028 17.3616 74.7028 17.3619 74.7028 17.3623C74.7028 17.3626 74.7028 17.363 74.7028 17.3633C74.7028 17.3637 74.7028 17.364 74.7028 17.3644C74.7028 17.3647 74.7028 17.3651 74.7028 17.3654C74.7028 17.3657 74.7028 17.3661 74.7028 17.3664C74.7028 17.3668 74.7028 17.3671 74.7028 17.3674C74.7028 17.3678 74.7028 17.3681 74.7028 17.3684C74.7028 17.3688 74.7028 17.3691 74.7028 17.3694C74.7028 17.3698 74.7028 17.3701 74.7028 17.3704C74.7028 17.3707 74.7028 17.371 74.7028 17.3714C74.7028 17.3717 74.7028 17.372 74.7028 17.3723C74.7028 17.3727 74.7028 17.373 74.7028 17.3733C74.7028 17.3736 74.7028 17.3739 74.7028 17.3742C74.7028 17.3745 74.7028 17.3748 74.7028 17.3752C74.7028 17.3755 74.7028 17.3758 74.7028 17.3761C74.7028 17.3764 74.7028 17.3767 74.7028 17.377C74.7028 17.3773 74.7028 17.3776 74.7028 17.3779C74.7028 17.3782 74.7028 17.3785 74.7028 17.3788C74.7028 17.3791 74.7028 17.3794 74.7028 17.3797C74.7028 17.38 74.7028 17.3803 74.7028 17.3806C74.7028 17.3808 74.7028 17.3811 74.7028 17.3814C74.7028 17.3817 74.7028 17.382 74.7028 17.3823C74.7028 17.3826 74.7028 17.3828 74.7028 17.3831C74.7028 17.3834 74.7028 17.3837 74.7028 17.384C74.7028 17.3842 74.7028 17.3845 74.7028 17.3848C74.7028 17.3851 74.7028 17.3853 74.7028 17.3856C74.7028 17.3859 74.7028 17.3861 74.7028 17.3864C74.7028 17.3867 74.7028 17.387 74.7028 17.3872C74.7028 17.3875 74.7028 17.3877 74.7028 17.388C74.7028 17.3883 74.7028 17.3885 74.7028 17.3888C74.7028 17.389 74.7028 17.3893 74.7028 17.3896C74.7028 17.3898 74.7028 17.3901 74.7028 17.3903C74.7028 17.3906 74.7028 17.3908 74.7028 17.3911C74.7028 17.3913 74.7028 17.3916 74.7028 17.3918C74.7028 17.3921 74.7028 17.3923 74.7028 17.3926C74.7028 17.3928 74.7028 17.393 74.7028 17.3933C74.7028 17.3935 74.7028 17.3938 74.7028 17.394C74.7028 17.3942 74.7028 17.3945 74.7028 17.3947C74.7028 17.3949 74.7028 17.3952 74.7028 17.3954C74.7028 17.3956 74.7028 17.3959 74.7028 17.3961C74.7028 17.3963 74.7028 17.3965 74.7028 17.3968C74.7028 17.397 74.7028 17.3972 74.7028 17.3974C74.7028 17.3976 74.7028 17.3979 74.7028 17.3981C74.7028 17.3983 74.7028 17.3985 74.7028 17.3987C74.7028 17.3989 74.7028 17.3992 74.7028 17.3994C74.7028 17.3996 74.7028 17.3998 74.7028 17.4H76.7028ZM76.7028 15.84C76.7028 15.3424 76.6858 14.9137 76.6464 14.5671C76.6131 14.2737 76.5491 13.8672 76.3508 13.55L74.6548 14.61C74.6086 14.536 74.6065 14.498 74.6202 14.5525C74.631 14.596 74.6456 14.673 74.6592 14.7929C74.6865 15.033 74.7028 15.3775 74.7028 15.84H76.7028ZM76.3028 13.48C76.1045 13.2156 75.8399 13.0818 75.6642 13.0115C75.4731 12.9351 75.2663 12.8868 75.0672 12.8536L74.7384 14.8264C74.7958 14.836 74.8397 14.8454 74.8719 14.8537C74.9048 14.8621 74.9198 14.8678 74.9214 14.8685C74.924 14.8695 74.9016 14.861 74.8656 14.8371C74.8299 14.8132 74.766 14.7642 74.7028 14.68L76.3028 13.48ZM75.0817 12.8561C74.7133 12.7891 74.3039 12.76 73.8628 12.76V14.76C74.2217 14.76 74.5057 14.7842 74.7239 14.8239L75.0817 12.8561ZM73.8041 12.7617L73.1241 12.8017L73.2415 14.7983L73.9215 14.7583L73.8041 12.7617ZM73.1471 12.8006C72.2691 12.832 71.3823 13.0352 70.4914 13.3915L71.2342 15.2485C71.9434 14.9648 72.6031 14.8213 73.2185 14.7994L73.1471 12.8006ZM69.8628 14.32V27H71.8628V14.32H69.8628ZM70.8628 26H64.0228V28H70.8628V26ZM65.0228 27V3H63.0228V27H65.0228ZM64.0637 3.99916L70.9037 3.71916L70.8219 1.72083L63.9819 2.00084L64.0637 3.99916ZM69.8628 2.72V7.4H71.8628V2.72H69.8628ZM69.8628 7.4C69.8628 9.33604 69.7927 10.5132 69.6838 11.036L71.6418 11.444C71.7995 10.6868 71.8628 9.30396 71.8628 7.4H69.8628ZM69.9557 11.9471L69.9957 11.9871L71.4099 10.5729L71.3699 10.5329L69.9557 11.9471ZM71.4524 11.9419C73.0933 10.0839 75.0015 9.2 77.2228 9.2V7.2C74.3774 7.2 71.939 8.36948 69.9533 10.6181L71.4524 11.9419ZM77.2228 9.2C78.0895 9.2 78.8782 9.32021 79.5958 9.5517L80.2098 7.64829C79.2741 7.34645 78.2762 7.2 77.2228 7.2V9.2ZM79.6045 9.55448C80.3378 9.78361 80.79 10.086 81.0579 10.4041L82.5877 9.11586C82.0023 8.42071 81.1745 7.94972 80.2011 7.64552L79.6045 9.55448ZM100.583 22V21H100.546L100.509 21.0027L100.583 22ZM101.902 21.92L102.892 21.7759L102.757 20.8454L101.819 20.9235L101.902 21.92ZM102.503 26.04L102.926 26.9459L103.599 26.6312L103.492 25.8959L102.503 26.04ZM87.4225 25.16L86.7334 25.8847L86.7393 25.8903L87.4225 25.16ZM85.5825 13.52L84.621 13.2453L84.6187 13.2533L84.6165 13.2613L85.5825 13.52ZM87.0225 10.4L86.2991 9.70953L86.2907 9.71832L86.2826 9.72733L87.0225 10.4ZM90.1425 8.88L90.4128 9.84279L90.1425 8.88ZM100.062 9.52L99.483 10.335L100.062 9.52ZM102.423 13.08L101.451 13.3185L101.452 13.3225L102.423 13.08ZM102.982 19.12L103.041 20.1183L103.982 20.0629V19.12H102.982ZM91.9825 19.28V18.28H90.9825V19.28H91.9825ZM92.5025 21.2L91.7264 21.8306L91.7379 21.8448L91.7499 21.8585L92.5025 21.2ZM94.0625 22.04L93.8664 23.0206L93.8854 23.0244L93.9045 23.0274L94.0625 22.04ZM92.3825 13L92.8297 13.8944L92.8472 13.8857L92.8644 13.8762L92.3825 13ZM92.0225 14.04L93.0141 14.1693L92.0225 14.04ZM91.8625 16.12L90.8631 16.0855L90.8274 17.12H91.8625V16.12ZM96.6625 16.08L96.7101 17.0789L97.6625 17.0335V16.08H96.6625ZM96.1025 13.36L95.2641 13.905L95.2734 13.9194L95.2833 13.9335L96.1025 13.36ZM96.8625 23.2C97.5711 23.2 98.846 23.1304 100.656 22.9973L100.509 21.0027C98.6924 21.1363 97.4873 21.2 96.8625 21.2V23.2ZM100.583 23C100.87 23 101.349 22.9696 101.986 22.9165L101.819 20.9235C101.176 20.9771 100.775 21 100.583 21V23ZM100.913 22.0641L101.513 26.1841L103.492 25.8959L102.892 21.7759L100.913 22.0641ZM102.079 25.1341C100.204 26.0108 97.6966 26.48 94.5025 26.48V28.48C97.8684 28.48 100.695 27.9892 102.926 26.9459L102.079 25.1341ZM94.5025 26.48C91.5981 26.48 89.5163 25.7493 88.1057 24.4297L86.7393 25.8903C88.6354 27.664 91.2736 28.48 94.5025 28.48V26.48ZM88.1116 24.4353C86.7509 23.1415 85.9825 21.1156 85.9825 18.16H83.9825C83.9825 21.4444 84.8408 24.0851 86.7334 25.8847L88.1116 24.4353ZM85.9825 18.16C85.9825 16.6443 86.1718 15.1848 86.5484 13.7787L84.6165 13.2613C84.1932 14.8419 83.9825 16.4757 83.9825 18.16H85.9825ZM86.544 13.7947C86.9615 12.3337 87.3909 11.4813 87.7624 11.0727L86.2826 9.72733C85.5874 10.492 85.0569 11.7196 84.621 13.2453L86.544 13.7947ZM87.7458 11.0905C88.1117 10.7072 88.93 10.259 90.4128 9.84279L89.8722 7.91721C88.315 8.35434 87.0533 8.91944 86.2991 9.70953L87.7458 11.0905ZM90.4128 9.84279C91.8498 9.4394 93.2656 9.24 94.6625 9.24V7.24C93.0727 7.24 91.4752 7.46726 89.8722 7.91721L90.4128 9.84279ZM94.6625 9.24C96.9743 9.24 98.5288 9.65645 99.483 10.335L100.642 8.70505C99.1962 7.67689 97.1507 7.24 94.6625 7.24V9.24ZM99.483 10.335C100.475 11.0401 101.131 12.0155 101.451 13.3185L103.394 12.8415C102.967 11.1045 102.05 9.70656 100.642 8.70505L99.483 10.335ZM101.452 13.3225C101.797 14.7022 101.982 16.6232 101.982 19.12H103.982C103.982 16.5502 103.794 14.4445 103.393 12.8375L101.452 13.3225ZM102.924 18.1217C101.129 18.2273 99.3753 18.28 97.6625 18.28V20.28C99.4163 20.28 101.209 20.226 103.041 20.1183L102.924 18.1217ZM97.6625 18.28H91.9825V20.28H97.6625V18.28ZM90.9825 19.28C90.9825 20.2429 91.1739 21.1507 91.7264 21.8306L93.2786 20.5694C93.1377 20.396 92.9825 20.0237 92.9825 19.28H90.9825ZM91.7499 21.8585C92.2954 22.4819 93.0282 22.8529 93.8664 23.0206L94.2586 21.0594C93.7635 20.9604 93.4562 20.7714 93.2551 20.5415L91.7499 21.8585ZM93.9045 23.0274C94.6487 23.1465 95.6435 23.2 96.8625 23.2V21.2C95.6815 21.2 94.8096 21.1468 94.2205 21.0526L93.9045 23.0274ZM91.9353 12.1056C91.4733 12.3366 91.2963 12.7942 91.2275 12.9929C91.1353 13.2592 91.0746 13.5757 91.0309 13.9107L93.0141 14.1693C93.0316 14.0349 93.0502 13.9239 93.069 13.834C93.088 13.7428 93.1052 13.6827 93.1175 13.6471C93.1312 13.6076 93.1314 13.6201 93.106 13.6587C93.0832 13.6935 93.0009 13.8089 92.8297 13.8944L91.9353 12.1056ZM91.0309 13.9107C90.9459 14.5621 90.8906 15.288 90.8631 16.0855L92.8619 16.1545C92.8877 15.4054 92.9391 14.7445 93.0141 14.1693L91.0309 13.9107ZM91.8625 17.12H93.9425V15.12H91.8625V17.12ZM93.9425 17.12C95.1973 17.12 96.1244 17.1068 96.7101 17.0789L96.6149 15.0811C96.0806 15.1066 95.1944 15.12 93.9425 15.12V17.12ZM97.6625 16.08C97.6625 14.7608 97.4813 13.5859 96.9217 12.7865L95.2833 13.9335C95.4704 14.2007 95.6625 14.8392 95.6625 16.08H97.6625ZM96.9409 12.815C96.3437 11.8961 95.3384 11.56 94.2625 11.56V13.56C94.9466 13.56 95.168 13.7572 95.2641 13.905L96.9409 12.815ZM94.2625 11.56C93.4049 11.56 92.6064 11.7356 91.9006 12.1238L92.8644 13.8762C93.2252 13.6778 93.6801 13.56 94.2625 13.56V11.56ZM120.87 26.44L121.186 27.3887L121.977 27.1251L121.86 26.2999L120.87 26.44ZM106.91 25.28L106.19 25.9744L106.197 25.9808L106.203 25.9871L106.91 25.28ZM105.35 13.56L106.313 13.8303L106.314 13.8259L105.35 13.56ZM106.71 10.44L105.971 9.76571L105.967 9.77103L106.71 10.44ZM109.99 8.88L109.74 7.91171L109.736 7.91272L109.99 8.88ZM120.67 8.72L121.667 8.79974L121.74 7.88879L120.839 7.73438L120.67 8.72ZM120.39 11.08L119.401 10.9345L119.399 10.9471L119.397 10.9597L120.39 11.08ZM120.03 13.44L119.966 14.4379L120.846 14.4947L121.012 13.6288L120.03 13.44ZM112.59 13.52L112.941 14.4563L112.951 14.4525L112.961 14.4485L112.59 13.52ZM111.99 15.16L111.007 14.9788L111.004 14.9914L111.002 15.004L111.99 15.16ZM112.23 20.72L111.336 21.1672L111.347 21.1899L111.359 21.2121L112.23 20.72ZM113.83 22L113.514 22.9487L113.83 22ZM120.27 22.2L121.26 22.0599L121.131 21.1476L120.211 21.2017L120.27 22.2ZM120.554 25.4913C118.511 26.1721 116.207 26.52 113.63 26.52V28.52C116.386 28.52 118.909 28.1479 121.186 27.3887L120.554 25.4913ZM113.63 26.52C110.797 26.52 108.857 25.8125 107.617 24.5729L106.203 25.9871C107.95 27.7341 110.489 28.52 113.63 28.52V26.52ZM107.63 24.5856C106.417 23.3286 105.71 21.2716 105.71 18.2H103.71C103.71 21.5284 104.47 24.1914 106.19 25.9744L107.63 24.5856ZM105.71 18.2C105.71 16.7183 105.911 15.2626 106.313 13.8303L104.387 13.2897C103.936 14.8974 103.71 16.535 103.71 18.2H105.71ZM106.314 13.8259C106.738 12.2877 107.144 11.4529 107.453 11.109L105.967 9.77103C105.316 10.4938 104.815 11.739 104.386 13.2941L106.314 13.8259ZM107.448 11.1143C107.801 10.7282 108.647 10.2661 110.244 9.84728L109.736 7.91272C108.08 8.34724 106.739 8.9251 105.972 9.76573L107.448 11.1143ZM110.24 9.84827C111.809 9.44331 113.432 9.24 115.11 9.24V7.24C113.268 7.24 111.478 7.46335 109.74 7.91172L110.24 9.84827ZM115.11 9.24C116.892 9.24 118.689 9.39491 120.501 9.70562L120.839 7.73438C118.918 7.40509 117.008 7.24 115.11 7.24V9.24ZM119.673 8.64026C119.622 9.27859 119.532 10.0423 119.401 10.9345L121.379 11.2255C121.515 10.3044 121.611 9.49474 121.667 8.79974L119.673 8.64026ZM119.397 10.9597C119.293 11.8222 119.176 12.5854 119.048 13.2512L121.012 13.6288C121.151 12.908 121.274 12.0978 121.383 11.2003L119.397 10.9597ZM120.094 12.4421C118.422 12.3342 116.841 12.28 115.35 12.28V14.28C116.793 14.28 118.331 14.3325 119.966 14.4379L120.094 12.4421ZM115.35 12.28C114.615 12.28 113.993 12.3003 113.493 12.3438C113.021 12.3848 112.565 12.4531 112.219 12.5915L112.961 14.4485C113.015 14.4269 113.219 14.3752 113.667 14.3362C114.087 14.2997 114.645 14.28 115.35 14.28V12.28ZM112.239 12.5837C111.896 12.7122 111.697 12.9662 111.598 13.1169C111.487 13.2851 111.405 13.4721 111.341 13.6464C111.212 13.998 111.104 14.4521 111.007 14.9788L112.973 15.3412C113.063 14.8546 113.148 14.5287 113.219 14.3336C113.255 14.2345 113.275 14.2065 113.267 14.2181C113.262 14.2258 113.239 14.2594 113.194 14.3018C113.149 14.3444 113.066 14.4097 112.941 14.4563L112.239 12.5837ZM111.002 15.004C110.835 16.0607 110.75 17.06 110.75 18H112.75C112.75 17.18 112.825 16.2859 112.978 15.316L111.002 15.004ZM110.75 18C110.75 19.2409 110.915 20.3268 111.336 21.1672L113.124 20.2728C112.905 19.8332 112.75 19.1058 112.75 18H110.75ZM111.359 21.2121C111.838 22.0584 112.579 22.6369 113.514 22.9487L114.146 21.0513C113.641 20.883 113.316 20.6082 113.101 20.2279L111.359 21.2121ZM113.514 22.9487C114.379 23.2371 115.474 23.36 116.75 23.36V21.36C115.573 21.36 114.721 21.2429 114.146 21.0513L113.514 22.9487ZM116.75 23.36C117.318 23.36 118.523 23.3045 120.329 23.1983L120.211 21.2017C118.39 21.3088 117.248 21.36 116.75 21.36V23.36ZM119.28 22.3401L119.88 26.5801L121.86 26.2999L121.26 22.0599L119.28 22.3401ZM142.723 27V28H144.472L143.585 26.493L142.723 27ZM135.283 27L134.392 27.4529L134.67 28H135.283V27ZM131.483 19.52L130.583 19.9548L130.587 19.9639L130.592 19.9729L131.483 19.52ZM130.003 18.04L130.332 17.0955L129.003 16.6334V18.04H130.003ZM130.003 27V28H131.003V27H130.003ZM123.163 27H122.163V28H123.163V27ZM123.163 3L123.123 2.00084L122.163 2.0401V3H123.163ZM130.003 2.72H131.003V1.67822L129.963 1.72083L130.003 2.72ZM130.003 16.36H129.003V17.86L130.388 17.2831L130.003 16.36ZM131.643 14.72L130.769 14.2344L130.767 14.2392L131.643 14.72ZM135.043 8.6L135.038 7.60001L134.453 7.60314L134.169 8.11436L135.043 8.6ZM142.523 8.56L143.373 9.08804L144.329 7.55033L142.518 7.56001L142.523 8.56ZM138.643 14.8L137.794 14.272L137.794 14.2721L138.643 14.8ZM136.643 17.16L136.012 16.3848L135.189 17.0555L135.908 17.8371L136.643 17.16ZM138.723 20.2L137.854 20.6943L137.858 20.7007L137.862 20.707L138.723 20.2ZM142.723 26H135.283V28H142.723V26ZM136.175 26.5471L132.375 19.0671L130.592 19.9729L134.392 27.4529L136.175 26.5471ZM132.384 19.0853C131.934 18.1527 131.269 17.4214 130.332 17.0955L129.675 18.9845C129.965 19.0852 130.286 19.3406 130.583 19.9548L132.384 19.0853ZM129.003 18.04V27H131.003V18.04H129.003ZM130.003 26H123.163V28H130.003V26ZM124.163 27V3H122.163V27H124.163ZM123.204 3.99916L130.044 3.71916L129.963 1.72083L123.123 2.00084L123.204 3.99916ZM129.003 2.72V16.36H131.003V2.72H129.003ZM130.388 17.2831C131.302 16.9023 131.997 16.1553 132.52 15.2008L130.767 14.2392C130.383 14.938 129.985 15.2843 129.619 15.4369L130.388 17.2831ZM132.518 15.2056L135.918 9.08564L134.169 8.11436L130.769 14.2344L132.518 15.2056ZM135.049 9.59998L142.529 9.55998L142.518 7.56001L135.038 7.60001L135.049 9.59998ZM141.674 8.03196L137.794 14.272L139.493 15.328L143.373 9.08804L141.674 8.03196ZM137.794 14.2721C137.225 15.1874 136.628 15.8829 136.012 16.3848L137.275 17.9352C138.099 17.2637 138.835 16.3859 139.493 15.3279L137.794 14.2721ZM135.908 17.8371C136.446 18.4221 137.095 19.36 137.854 20.6943L139.593 19.7057C138.805 18.32 138.068 17.2313 137.379 16.4829L135.908 17.8371ZM137.862 20.707L141.862 27.507L143.585 26.493L139.585 19.693L137.862 20.707Z" fill="white" mask="url(#path-1-outside-1_1020_83)"/>
</g>
<defs>
<filter id="filter0_d_1020_83" x="0.380981" y="0.0800018" width="146.342" height="35.44" filterUnits="userSpaceOnUse" color-interpolation-filters="sRGB">
<feFlood flood-opacity="0" result="BackgroundImageFix"/>
<feColorMatrix in="SourceAlpha" type="matrix" values="0 0 0 0 0 0 0 0 0 0 0 0 0 0 0 0 0 0 127 0" result="hardAlpha"/>
<feOffset dy="4"/>
<feGaussianBlur stdDeviation="2"/>
<feComposite in2="hardAlpha" operator="out"/>
<feColorMatrix type="matrix" values="0 0 0 0 0 0 0 0 0 0 0 0 0 0 0 0 0 0 0.25 0"/>
<feBlend mode="normal" in2="BackgroundImageFix" result="effect1_dropShadow_1020_83"/>
<feBlend mode="normal" in="SourceGraphic" in2="effect1_dropShadow_1020_83" result="shape"/>
</filter>
</defs>
</svg>
